<svg version="1.1" xmlns="http://www.w3.org/2000/svg" xmlns:xlink="http://www.w3.org/1999/xlink" x="0px" y="0px" viewBox="0 0 590.2 585.4" style="enable-background:new 0 0 590.2 585.4;" xml:space="preserve">
<style type="text/css">
	.st0{fill:#D8D8D8;}
	.st1{fill:#F4F4F4;}
	.st2{opacity:0.4;fill:#FFFFFF;enable-background:new    ;}
	.st3{fill:#FFFFFF;}
	.st4{opacity:0.6;fill:#56C2BF;enable-background:new    ;}
	.st5{opacity:0.6;fill:#FFFFFF;enable-background:new    ;}
	.st6{opacity:0.9;fill:#FFFFFF;enable-background:new    ;}
	.st7{fill:#F5DECF;}
	.st8{fill:#17ACA7;}
	.st9{fill:#6BCAC7;}
	.st10{fill:#2CB3AF;}
	.st11{fill:#ED9051;}
	.st12{fill:#F9AB75;}
	.st13{fill:#B88FF9;}
	.st14{fill:#D37A3D;}
	.st15{fill:#E0E0E0;}
	.st16{fill:#412660;}
	.st17{fill:#623F93;}
	.st18{fill:#634D7C;}
	.st19{opacity:0.5;fill:#412660;enable-background:new    ;}
	.st20{clip-path:url(#SVGID_2_);fill:#FF7769;}
	.st21{fill:#FF7769;}
	.st22{fill:#8669B6;}
	.st23{clip-path:url(#SVGID_4_);fill:#F4F4F4;}
	.st24{opacity:0.6;}
	.st25{fill:#F7E0AD;}
	.st26{fill:#D8423F;}
	.st27{fill:#D3D3D3;}
	.st28{fill:#52396E;}
	.st29{fill:#E2C07D;}
	.st30{fill:#FF7769;stroke:#FFFFFF;stroke-miterlimit:10;}
	.st31{enable-background:new    ;}
	.st32{fill:#0F8781;}
	.st33{clip-path:url(#SVGID_6_);fill:#412660;}
	.st34{fill:#BE99F9;}
	.st35{fill:#56C2BF;}
	.st36{fill:#AEEAF4;}
	.st37{fill:#3C2358;}
</style>
<g id="Layer_21">
<g>
<g>
<polygon class="st0" points="240.9,415.1 249.3,420.3 249.3,72.2 240.9,72.2 			"></polygon>
<polygon class="st1" points="249.3,420.3 257.7,415.1 257.7,72.2 249.3,72.2 			"></polygon>
<path class="st1" d="M248.7,77.7l-7.4-4.7c-0.6-0.4-0.6-1.3,0-1.7l7.4-4.7c0.3-0.2,0.7-0.2,1.1,0l7.4,4.7c0.6,0.4,0.6,1.3,0,1.7
				l-7.4,4.7C249.5,77.9,249.1,77.9,248.7,77.7z"></path>
</g>
<g>
<polygon class="st0" points="519.3,422.1 527.8,427.4 527.8,159.3 519.3,159.3 			"></polygon>
<polygon class="st1" points="527.8,427.4 536.2,422.1 536.2,159.3 527.8,159.3 			"></polygon>
<path class="st1" d="M527.2,164.8l-7.4-4.7c-0.6-0.4-0.6-1.3,0-1.7l7.4-4.7c0.3-0.2,0.7-0.2,1,0l7.4,4.7c0.6,0.4,0.6,1.3,0,1.7
				l-7.4,4.7C528,165,527.5,165,527.2,164.8z"></path>
</g>
<g>
<polygon class="st0" points="61,442.1 52.6,447.4 52.6,179.3 61,179.3 			"></polygon>
<polygon class="st1" points="52.6,447.4 44.2,442.1 44.2,179.3 52.6,179.3 			"></polygon>
<path class="st1" d="M53.1,184.8l7.4-4.7c0.6-0.4,0.6-1.3,0-1.7l-7.4-4.7c-0.3-0.2-0.7-0.2-1,0l-7.4,4.7c-0.6,0.4-0.6,1.3,0,1.7
				l7.4,4.7C52.4,185,52.8,185,53.1,184.8z"></path>
</g>
<g>
<g>
<polygon class="st0" points="350.7,395.1 342.3,400.3 342.3,52.2 350.7,52.2 				"></polygon>
<polygon class="st1" points="342.3,400.3 333.9,395.1 333.9,52.2 342.3,52.2 				"></polygon>
</g>
<g>
<path class="st1" d="M342.8,57.7l7.4-4.7c0.6-0.4,0.6-1.3,0-1.7l-7.4-4.7c-0.3-0.2-0.7-0.2-1,0l-7.4,4.7c-0.6,0.4-0.6,1.3,0,1.7
					l7.4,4.7C342.1,57.9,342.5,57.9,342.8,57.7z"></path>
</g>
</g>
</g>
</g>
<g id="Layer_17">
<g>
<path class="st2" d="M362.4,370c-0.5,0.3-64.5,81.8-64.5,81.8c-1.2-0.8-1.7-2.1-1.6-3.4h0v-118l0.1,0l2.5,0.6L362.4,370z"></path>
<path class="st1" d="M296.3,330.5v1.7c-0.3,0-0.6,0-0.9,0c-0.2,0.2-0.5,0.5-0.8,0.6l-107.4,65.6L76.8,465.8
			c-0.5,0.3-1.2,0.5-1.8,0.5v-69.4L296.3,330.5z"></path>
<g>
<path class="st0" d="M536,385c-0.2,0.8-0.7,1.4-1.5,1.9l-71.7,44.5c-0.5,0.3-1.1,0.5-1.8,0.5v119c-0.6,0-1.2-0.2-1.8-0.5l-54-33
				l-107.4-65.6c-1.2-0.8-1.7-2.1-1.6-3.4h0V330.5l0.1,0l2.5,0.6L461.1,368L536,385z"></path>
<path class="st3" d="M447,532.4c-30.3-18.7-92.6-57.4-139.8-86.7c-0.6-0.4-0.9-1-0.9-1.7v-90.5c0-1.6,1.7-2.5,3-1.7L449,437.5
				c0.6,0.4,1,1,1,1.7c0,3.2,0,7.3-0.1,12.2c0,9.9,0,23.8,0,41.1c0,13.6,0.1,27.3,0.1,38.2C450,532.3,448.3,533.2,447,532.4z"></path>
<path class="st1" d="M296.3,448.4L296.3,448.4c0.1,1.3-0.4,2.6-1.6,3.4l-107.4,65.6L76.8,584.8c-0.6,0.3-1.2,0.5-1.8,0.5v-119
				c0.6,0,1.2-0.2,1.8-0.5l110.3-67.4l107.4-65.6c0.3-0.2,0.5-0.4,0.8-0.6c0.3,0,0.6,0,0.9,0V448.4z"></path>
<path class="st4" d="M86,471.9l197.2-120.5c1.3-0.8,3,0.1,3,1.7v91.2c0,0.7-0.4,1.3-1,1.7L88.1,566.2c-1.3,0.8-3-0.2-3-1.7v-90.9
				C85.1,472.9,85.4,472.3,86,471.9z"></path>
<path class="st3" d="M96,531.9l78.1-47.9c1.3-0.8,3,0.1,3,1.7V497c0,0.7-0.4,1.3-1,1.7l-78.1,47.5c-1.3,0.8-3-0.2-3-1.7v-10.9
				C95.1,532.9,95.4,532.3,96,531.9z"></path>
<path class="st0" d="M75.1,396.9v188.4c-0.6,0-1.2-0.2-1.8-0.5L1.6,540.3c-1.1-0.7-1.6-1.8-1.6-2.9v-118l0.1,0L75.1,396.9z"></path>
<path class="st1" d="M536.1,384.2V503h0c0,1.1-0.5,2.3-1.6,2.9l-71.7,44.5c-0.5,0.3-1.1,0.5-1.8,0.5v-119c0.6,0,1.2-0.2,1.8-0.5
				l71.7-44.5c0.8-0.5,1.2-1.1,1.5-1.9L536.1,384.2z"></path>
<path class="st5" d="M462.8,550.4c-0.5,0.3-1.1,0.5-1.8,0.5v-119c0.6,0,1.2-0.2,1.8-0.5c0,0,19.2-11.4,19.4-12.1L462.8,550.4z"></path>
<path class="st4" d="M438.8,498.1l-78.1-47.9c-1.3-0.8-3,0.1-3,1.7v11.2c0,0.7,0.4,1.3,1,1.7l78.1,47.5c1.3,0.8,3-0.2,3-1.7
				v-10.9C439.8,499.1,439.4,498.5,438.8,498.1z"></path>
<path class="st5" d="M76.8,584.9c-0.6,0.3-1.2,0.5-1.8,0.5v-119c0.6,0,1.2-0.2,1.8-0.5l110.3-67.4L76.8,584.9z"></path>
<path class="st1" d="M536,385C536,385,536,385,536,385c-0.2,0.8-0.7,1.4-1.5,1.9l-71.7,44.5c-0.5,0.3-1.1,0.5-1.8,0.5
				c-0.6,0-1.2-0.2-1.8-0.5l-54-33l-107.4-65.6c-0.4-0.2-0.6-0.5-0.9-0.8c0,0,0,0,0,0c-0.2,0.1-0.5,0.1-0.7,0.2c-0.3,0-0.6,0-0.9,0
				c-0.2,0.2-0.5,0.5-0.8,0.6l-107.4,65.6L76.8,465.8c-0.5,0.3-1.2,0.5-1.8,0.5s-1.2-0.2-1.8-0.5L1.6,421.3
				c-0.8-0.5-1.2-1.1-1.5-1.9c-0.4-1.4,0.1-3,1.5-3.8l107.4-65.6l110.3-67.4c0.3-0.2,0.7-0.3,1-0.4l74.4-45.6c1.2-0.7,2.6-0.7,3.8,0
				l73.5,45.6c0,0,0,0,0,0c0.4,0.1,0.7,0.2,1.1,0.4l110.3,67.4l51.1,31.3C535.9,382,536.4,383.6,536,385z"></path>
<path class="st6" d="M536.1,384.2v3.8h0c0,1.1-0.5,2.3-1.6,2.9l-71.7,44.5c-0.5,0.3-1.1,0.5-1.8,0.5v-4c0.6,0,1.2-0.2,1.8-0.5
				l71.7-44.5c0.8-0.5,1.2-1.1,1.5-1.9L536.1,384.2z"></path>
<path class="st6" d="M296.3,332.1c0,1.5,0.4,4.5-0.8,5.2L76.8,470.9c-0.6,0.3-1.2,0.5-1.8,0.5v-5c0.6,0,1.2-0.2,1.8-0.5
				l217.8-133c0.2-0.1,0.4-0.5,0.8-0.7C295.6,332.1,296.3,332.1,296.3,332.1z"></path>
</g>
</g>
</g>
<g id="Layer_4">
<g>
<path class="st7" d="M217.9,348.5c7.2,1.6,19.9,3.4,34.5-0.5c5.9-1.6,35.2-9.4,39.2-30.8c2.5-13.3-6.3-24.6-8.1-27
			c-16.8-21.6-48.8-16.6-50.4-16.4c-21.6,13.3-43.2,26.6-64.8,39.9c6.2,8.5,17.4,21.2,35.3,29.5
			C208.5,345.7,213.4,347.4,217.9,348.5z"></path>
<g>
<g>
 <path class="st13" d="M204.9,250.9c0-6.2,5.1-11.3,11.3-11.3H272c6.2,0,11.3,5.1,11.3,11.3v63.7h0c0,6.9-3.3,13.7-9.6,18.1l0,0
					c-17.8,12.3-41.4,12.3-59.2,0l0,0c-6.4-4.4-9.5-11.2-9.6-18.1h0L204.9,250.9L204.9,250.9z"></path>
<g>
<g>
<path class="st14" d="M259,313.8c0,2.5-0.5,4.9-1.4,7.2c-0.6,1.5-1.4,2.9-2.4,4.1c-0.5,0.6-1.1,1.2-1.7,1.7
							c-5.1,4.4-11,6.6-16.9,6.6s-11.8-2.2-16.9-6.6c-2.9-2.5-4.6-6.1-5.2-9.9c-0.2-1-0.3-2.1-0.3-3.1c0-2.5,0.5-4.9,1.4-7.2
							c0.9-2.2,2.3-4.3,4.1-5.8c10.2-8.8,23.7-8.8,33.9,0C257.2,304,259,308.9,259,313.8z"></path>
<path class="st12" d="M259,312.4c0,2.3-0.5,4.6-1.4,6.7c-0.6,1.4-1.4,2.7-2.4,3.8c-0.5,0.6-1.1,1.1-1.7,1.6
							c-5.1,4.1-11,6.1-16.9,6.1s-11.8-2-16.9-6.1c-2.9-2.3-4.6-5.6-5.2-9.2c-0.2-1-0.3-1.9-0.3-2.9c0-2.3,0.5-4.6,1.4-6.7
							c0.9-2.1,2.3-4,4.1-5.4c10.2-8.1,23.7-8.1,33.9,0C257.2,303.3,259,307.8,259,312.4z"></path>
<g>
<path class="st11" d="M227.8,302.2c0,0.3-0.1,0.5-0.2,0.8c0,0,0,0,0,0c-0.8,0.3-1.6,0.4-2.4,0.4s-1.6-0.1-2.4-0.5
								c-0.1-0.1-0.1-0.3-0.1-0.4c0-0.1,0-0.2,0-0.3c0-0.3,0.1-0.5,0.2-0.8c0.1-0.2,0.3-0.5,0.5-0.6c1.2-0.9,2.7-0.9,3.9,0
								C227.6,301.1,227.8,301.6,227.8,302.2z"></path>
<path class="st14" d="M227.6,302.9c-0.1,0.1-0.2,0.3-0.3,0.4c-0.1,0.1-0.1,0.1-0.2,0.2c-0.5,0.4-1.1,0.6-1.6,0.7
								c-0.1,0-0.2,0-0.3,0c-0.1,0-0.2,0-0.3,0c-0.6-0.1-1.1-0.3-1.6-0.7c-0.2-0.2-0.4-0.4-0.5-0.6c0.8,0.3,1.6,0.5,2.4,0.5
								C226.1,303.4,226.9,303.2,227.6,302.9z"></path>
<path class="st11" d="M228.9,309.8c0,0.3-0.1,0.5-0.2,0.8c0,0,0,0,0,0c-0.8,0.3-1.6,0.4-2.4,0.4s-1.6-0.1-2.4-0.5
								c-0.1-0.1-0.1-0.3-0.1-0.4c0-0.1,0-0.2,0-0.3c0-0.3,0.1-0.5,0.2-0.8c0.1-0.2,0.3-0.5,0.5-0.6c1.2-0.9,2.7-0.9,3.9,0
								C228.7,308.8,228.9,309.3,228.9,309.8z"></path>
<path class="st14" d="M228.8,310.6c-0.1,0.1-0.2,0.3-0.3,0.4c-0.1,0.1-0.1,0.1-0.2,0.2c-0.5,0.4-1.1,0.6-1.6,0.7
								c-0.1,0-0.2,0-0.3,0c-0.1,0-0.2,0-0.3,0c-0.6-0.1-1.1-0.3-1.6-0.7c-0.2-0.2-0.4-0.4-0.5-0.6c0.8,0.3,1.6,0.5,2.4,0.5
								C227.2,311,228,310.9,228.8,310.6z"></path>
<path class="st11" d="M238.1,303.6c0,0.3-0.1,0.5-0.2,0.8c0,0,0,0,0,0c-0.8,0.3-1.6,0.4-2.4,0.4s-1.6-0.1-2.4-0.5
								c-0.1-0.1-0.1-0.3-0.1-0.4c0-0.1,0-0.2,0-0.3c0-0.3,0.1-0.5,0.2-0.8c0.1-0.2,0.3-0.5,0.5-0.6c1.2-0.9,2.7-0.9,3.9,0
								C237.9,302.5,238.1,303.1,238.1,303.6z"></path>
<path class="st14" d="M237.9,304.4c-0.1,0.1-0.2,0.3-0.3,0.4c-0.1,0.1-0.1,0.1-0.2,0.2c-0.5,0.4-1.1,0.6-1.6,0.7
								c-0.1,0-0.2,0-0.3,0c-0.1,0-0.2,0-0.3,0c-0.6-0.1-1.1-0.3-1.6-0.7c-0.2-0.2-0.4-0.4-0.5-0.6c0.8,0.3,1.6,0.5,2.4,0.5
								C236.3,304.8,237.1,304.7,237.9,304.4z"></path>
<path class="st11" d="M246.9,300.1c0,0.3-0.1,0.5-0.2,0.8c0,0,0,0,0,0c-0.8,0.3-1.6,0.4-2.4,0.4s-1.6-0.1-2.4-0.5
								c-0.1-0.1-0.1-0.3-0.1-0.4c0-0.1,0-0.2,0-0.3c0-0.3,0.1-0.5,0.2-0.8c0.1-0.2,0.3-0.5,0.5-0.6c1.2-0.9,2.7-0.9,3.9,0
								C246.7,299,246.9,299.6,246.9,300.1z"></path>
<path class="st14" d="M246.8,300.9c-0.1,0.1-0.2,0.3-0.3,0.4c-0.1,0.1-0.1,0.1-0.2,0.2c-0.5,0.4-1.1,0.6-1.6,0.7
								c-0.1,0-0.2,0-0.3,0c-0.1,0-0.2,0-0.3,0c-0.6-0.1-1.1-0.3-1.6-0.7c-0.2-0.2-0.4-0.4-0.5-0.6c0.8,0.3,1.6,0.5,2.4,0.5
								C245.2,301.3,246,301.2,246.8,300.9z"></path>
<path class="st11" d="M253.7,314.7c0,0.3-0.1,0.5-0.2,0.8c0,0,0,0,0,0c-0.8,0.3-1.6,0.4-2.4,0.4s-1.6-0.1-2.4-0.5
								c-0.1-0.1-0.1-0.3-0.1-0.4c0-0.1,0-0.2,0-0.3c0-0.3,0.1-0.5,0.2-0.8c0.1-0.2,0.3-0.5,0.5-0.6c1.2-0.9,2.7-0.9,3.9,0
								C253.5,313.7,253.7,314.2,253.7,314.7z"></path>
<path class="st14" d="M253.5,315.5c-0.1,0.1-0.2,0.3-0.3,0.4c-0.1,0.1-0.1,0.1-0.2,0.2c-0.5,0.4-1.1,0.6-1.6,0.7
								c-0.1,0-0.2,0-0.3,0c-0.1,0-0.2,0-0.3,0c-0.6-0.1-1.1-0.3-1.6-0.7c-0.2-0.2-0.4-0.4-0.5-0.6c0.8,0.3,1.6,0.5,2.4,0.5
								C251.9,315.9,252.7,315.8,253.5,315.5z"></path>
<path class="st11" d="M236.4,321.5c0,0.3-0.1,0.5-0.2,0.8c0,0,0,0,0,0c-0.8,0.3-1.6,0.4-2.4,0.4s-1.6-0.1-2.4-0.5
								c-0.1-0.1-0.1-0.3-0.1-0.4c0-0.1,0-0.2,0-0.3c0-0.3,0.1-0.5,0.2-0.8c0.1-0.2,0.3-0.5,0.5-0.6c1.2-0.9,2.7-0.9,3.9,0
								C236.2,320.4,236.4,320.9,236.4,321.5z"></path>
<path class="st14" d="M236.2,322.2c-0.1,0.1-0.2,0.3-0.3,0.4c-0.1,0.1-0.1,0.1-0.2,0.2c-0.5,0.4-1.1,0.6-1.6,0.7
								c-0.1,0-0.2,0-0.3,0c-0.1,0-0.2,0-0.3,0c-0.6-0.1-1.1-0.3-1.6-0.7c-0.2-0.2-0.4-0.4-0.5-0.6c0.8,0.3,1.6,0.5,2.4,0.5
								C234.6,322.7,235.4,322.5,236.2,322.2z"></path>
<path class="st1" d="M246.9,321.5c0,0.3-0.1,0.5-0.2,0.8c0,0,0,0,0,0c-0.8,0.3-1.6,0.4-2.4,0.4s-1.6-0.1-2.4-0.5
								c-0.1-0.1-0.1-0.3-0.1-0.4c0-0.1,0-0.2,0-0.3c0-0.3,0.1-0.5,0.2-0.8c0.1-0.2,0.3-0.5,0.5-0.6c1.2-0.9,2.7-0.9,3.9,0
								C246.7,320.4,246.9,320.9,246.9,321.5z"></path>
<path class="st15" d="M246.8,322.2c-0.1,0.1-0.2,0.3-0.3,0.4c-0.1,0.1-0.1,0.1-0.2,0.2c-0.5,0.4-1.1,0.6-1.6,0.7
								c-0.1,0-0.2,0-0.3,0c-0.1,0-0.2,0-0.3,0c-0.6-0.1-1.1-0.3-1.6-0.7c-0.2-0.2-0.4-0.4-0.5-0.6c0.8,0.3,1.6,0.5,2.4,0.5
								C245.2,322.7,246,322.5,246.8,322.2z"></path>
<path class="st1" d="M249.5,307c0,0.3-0.1,0.5-0.2,0.8c0,0,0,0,0,0c-0.8,0.3-1.6,0.4-2.4,0.4s-1.6-0.1-2.4-0.5
								c-0.1-0.1-0.1-0.3-0.1-0.4c0-0.1,0-0.2,0-0.3c0-0.3,0.1-0.5,0.2-0.8c0.1-0.2,0.3-0.5,0.5-0.6c1.2-0.9,2.7-0.9,3.9,0
								C249.3,305.9,249.5,306.5,249.5,307z"></path>
<path class="st15" d="M249.3,307.8c-0.1,0.1-0.2,0.3-0.3,0.4c-0.1,0.1-0.1,0.1-0.2,0.2c-0.5,0.4-1.1,0.6-1.6,0.7
								c-0.1,0-0.2,0-0.3,0c-0.1,0-0.2,0-0.3,0c-0.6-0.1-1.1-0.3-1.6-0.7c-0.2-0.2-0.4-0.4-0.5-0.6c0.8,0.3,1.6,0.5,2.4,0.5
								C247.8,308.2,248.6,308.1,249.3,307.8z"></path>
<path class="st1" d="M239.5,311.5c0,0.3-0.1,0.5-0.2,0.8c0,0,0,0,0,0c-0.8,0.3-1.6,0.4-2.4,0.4s-1.6-0.1-2.4-0.5
								c-0.1-0.1-0.1-0.3-0.1-0.4c0-0.1,0-0.2,0-0.3c0-0.3,0.1-0.5,0.2-0.8c0.1-0.2,0.3-0.5,0.5-0.6c1.2-0.9,2.7-0.9,3.9,0
								C239.3,310.4,239.5,311,239.5,311.5z"></path>
<path class="st15" d="M239.4,312.3c-0.1,0.1-0.2,0.3-0.3,0.4c-0.1,0.1-0.1,0.1-0.2,0.2c-0.5,0.4-1.1,0.6-1.6,0.7
								c-0.1,0-0.2,0-0.3,0c-0.1,0-0.2,0-0.3,0c-0.6-0.1-1.1-0.3-1.6-0.7c-0.2-0.2-0.4-0.4-0.5-0.6c0.8,0.3,1.6,0.5,2.4,0.5
								C237.8,312.7,238.6,312.5,239.4,312.3z"></path>
<path class="st1" d="M224.5,316.2c0,0.3-0.1,0.5-0.2,0.8c0,0,0,0,0,0c-0.8,0.3-1.6,0.4-2.4,0.4s-1.6-0.1-2.4-0.5
								c-0.1-0.1-0.1-0.3-0.1-0.4c0-0.1,0-0.2,0-0.3c0-0.3,0.1-0.5,0.2-0.8c0.1-0.2,0.3-0.5,0.5-0.6c1.2-0.9,2.7-0.9,3.9,0
								C224.3,315.1,224.5,315.6,224.5,316.2z"></path>
<path class="st15" d="M224.3,316.9c-0.1,0.1-0.2,0.3-0.3,0.4c-0.1,0.1-0.1,0.1-0.2,0.2c-0.5,0.4-1.1,0.6-1.6,0.7
								c-0.1,0-0.2,0-0.3,0c-0.1,0-0.2,0-0.3,0c-0.6-0.1-1.1-0.3-1.6-0.7c-0.2-0.2-0.4-0.4-0.5-0.6c0.8,0.3,1.6,0.5,2.4,0.5
								C222.7,317.4,223.5,317.2,224.3,316.9z"></path>
</g>
</g>
<g>
<path class="st14" d="M276.3,307.2c0,2.5-0.5,4.9-1.4,7.2c-0.6,1.5-1.4,2.9-2.5,4.1c-0.5,0.6-1.1,1.2-1.7,1.7
							c-5.1,4.4-11,6.6-16.9,6.6s-11.8-2.2-16.9-6.6c-2.9-2.5-4.6-6.1-5.2-9.9c-0.2-1-0.3-2.1-0.3-3.1c0-2.5,0.5-4.9,1.4-7.2
							c0.9-2.2,2.3-4.3,4.1-5.8c10.2-8.8,23.7-8.8,33.9,0C274.5,297.3,276.3,302.2,276.3,307.2z"></path>
<path class="st12" d="M276.3,305.8c0,2.3-0.5,4.6-1.4,6.7c-0.6,1.4-1.4,2.7-2.5,3.8c-0.5,0.6-1.1,1.1-1.7,1.6
							c-5.1,4.1-11,6.1-16.9,6.1s-11.8-2-16.9-6.1c-2.9-2.3-4.6-5.6-5.2-9.2c-0.2-1-0.3-1.9-0.3-2.9c0-2.3,0.5-4.6,1.4-6.7
							c0.9-2.1,2.3-4,4.1-5.4c10.2-8.1,23.7-8.1,33.9,0C274.5,296.6,276.3,301.2,276.3,305.8z"></path>
<g>
<path class="st11" d="M245.1,295.5c0,0.3-0.1,0.5-0.2,0.8c0,0,0,0,0,0c-0.8,0.3-1.6,0.4-2.4,0.4s-1.6-0.1-2.4-0.5
								c-0.1-0.1-0.1-0.3-0.1-0.4c0-0.1,0-0.2,0-0.3c0-0.3,0.1-0.5,0.2-0.8c0.1-0.2,0.3-0.5,0.5-0.6c1.2-0.9,2.7-0.9,3.9,0
								C244.9,294.5,245.1,295,245.1,295.5z"></path>
<path class="st14" d="M244.9,296.3c-0.1,0.1-0.2,0.3-0.3,0.4c-0.1,0.1-0.1,0.1-0.2,0.2c-0.5,0.4-1.1,0.6-1.6,0.7
								c-0.1,0-0.2,0-0.3,0c-0.1,0-0.2,0-0.3,0c-0.6-0.1-1.1-0.3-1.6-0.7c-0.2-0.2-0.4-0.4-0.5-0.6c0.8,0.3,1.6,0.5,2.4,0.5
								C243.3,296.7,244.1,296.6,244.9,296.3z"></path>
<path class="st11" d="M246.2,303.2c0,0.3-0.1,0.5-0.2,0.8c0,0,0,0,0,0c-0.8,0.3-1.6,0.4-2.4,0.4s-1.6-0.1-2.4-0.5
								c-0.1-0.1-0.1-0.3-0.1-0.4c0-0.1,0-0.2,0-0.3c0-0.3,0.1-0.5,0.2-0.8c0.1-0.2,0.3-0.5,0.5-0.6c1.2-0.9,2.7-0.9,3.9,0
								C246,302.1,246.2,302.6,246.2,303.2z"></path>
<path class="st14" d="M246,303.9c-0.1,0.1-0.2,0.3-0.3,0.4c-0.1,0.1-0.1,0.1-0.2,0.2c-0.5,0.4-1.1,0.6-1.6,0.7
								c-0.1,0-0.2,0-0.3,0c-0.1,0-0.2,0-0.3,0c-0.6-0.1-1.1-0.3-1.6-0.7c-0.2-0.2-0.4-0.4-0.5-0.6c0.8,0.3,1.6,0.5,2.4,0.5
								C244.5,304.4,245.3,304.2,246,303.9z"></path>
<path class="st11" d="M255.3,296.9c0,0.3-0.1,0.5-0.2,0.8c0,0,0,0,0,0c-0.8,0.3-1.6,0.4-2.4,0.4s-1.6-0.1-2.4-0.5
								c-0.1-0.1-0.1-0.3-0.1-0.4c0-0.1,0-0.2,0-0.3c0-0.3,0.1-0.5,0.2-0.8c0.1-0.2,0.3-0.5,0.5-0.6c1.2-0.9,2.7-0.9,3.9,0
								C255.1,295.9,255.3,296.4,255.3,296.9z"></path>
<path class="st14" d="M255.2,297.7c-0.1,0.1-0.2,0.3-0.3,0.4c-0.1,0.1-0.1,0.1-0.2,0.2c-0.5,0.4-1.1,0.6-1.6,0.7
								c-0.1,0-0.2,0-0.3,0c-0.1,0-0.2,0-0.3,0c-0.6-0.1-1.1-0.3-1.6-0.7c-0.2-0.2-0.4-0.4-0.5-0.6c0.8,0.3,1.6,0.5,2.4,0.5
								C253.6,298.1,254.4,298,255.2,297.7z"></path>
<path class="st11" d="M264.2,293.4c0,0.3,0,0.5-0.2,0.8c0,0,0,0,0,0c-0.8,0.3-1.6,0.4-2.4,0.4c-0.8,0-1.6-0.1-2.4-0.5
								c-0.1-0.1-0.1-0.3-0.1-0.4c0-0.1,0-0.2,0-0.3c0-0.3,0-0.5,0.2-0.8c0.1-0.2,0.3-0.5,0.5-0.6c1.2-0.9,2.7-0.9,3.9,0
								C264,292.4,264.2,292.9,264.2,293.4z"></path>
<path class="st14" d="M264,294.2c-0.1,0.1-0.2,0.3-0.3,0.4c-0.1,0.1-0.1,0.1-0.2,0.2c-0.5,0.4-1.1,0.6-1.6,0.7
								c-0.1,0-0.2,0-0.3,0c-0.1,0-0.2,0-0.3,0c-0.6-0.1-1.1-0.3-1.6-0.7c-0.2-0.2-0.4-0.4-0.5-0.6c0.8,0.3,1.6,0.5,2.4,0.5
								C262.5,294.6,263.3,294.5,264,294.2z"></path>
<path class="st11" d="M271,308c0,0.3,0,0.5-0.2,0.8c0,0,0,0,0,0c-0.8,0.3-1.6,0.4-2.4,0.4c-0.8,0-1.6-0.1-2.4-0.5
								c-0.1-0.1-0.1-0.3-0.1-0.4c0-0.1,0-0.2,0-0.3c0-0.3,0-0.5,0.2-0.8c0.1-0.2,0.3-0.5,0.5-0.6c1.2-0.9,2.7-0.9,3.9,0
								C270.8,307,271,307.5,271,308z"></path>
<path class="st14" d="M270.8,308.8c-0.1,0.1-0.2,0.3-0.3,0.4c-0.1,0.1-0.1,0.1-0.2,0.2c-0.5,0.4-1.1,0.6-1.6,0.7
								c-0.1,0-0.2,0-0.3,0c-0.1,0-0.2,0-0.3,0c-0.6-0.1-1.1-0.3-1.6-0.7c-0.2-0.2-0.4-0.4-0.5-0.6c0.8,0.3,1.6,0.5,2.4,0.5
								C269.2,309.3,270,309.1,270.8,308.8z"></path>
<path class="st11" d="M253.7,314.8c0,0.3-0.1,0.5-0.2,0.8c0,0,0,0,0,0c-0.8,0.3-1.6,0.4-2.4,0.4s-1.6-0.1-2.4-0.5
								c-0.1-0.1-0.1-0.3-0.1-0.4c0-0.1,0-0.2,0-0.3c0-0.3,0.1-0.5,0.2-0.8c0.1-0.2,0.3-0.5,0.5-0.6c1.2-0.9,2.7-0.9,3.9,0
								C253.5,313.8,253.7,314.3,253.7,314.8z"></path>
<path class="st14" d="M253.5,315.6c-0.1,0.1-0.2,0.3-0.3,0.4c-0.1,0.1-0.1,0.1-0.2,0.2c-0.5,0.4-1.1,0.6-1.6,0.7
								c-0.1,0-0.2,0-0.3,0c-0.1,0-0.2,0-0.3,0c-0.6-0.1-1.1-0.3-1.6-0.7c-0.2-0.2-0.4-0.4-0.5-0.6c0.8,0.3,1.6,0.5,2.4,0.5
								C251.9,316,252.7,315.9,253.5,315.6z"></path>
<path class="st1" d="M264.2,314.8c0,0.3,0,0.5-0.2,0.8c0,0,0,0,0,0c-0.8,0.3-1.6,0.4-2.4,0.4c-0.8,0-1.6-0.1-2.4-0.5
								c-0.1-0.1-0.1-0.3-0.1-0.4c0-0.1,0-0.2,0-0.3c0-0.3,0-0.5,0.2-0.8c0.1-0.2,0.3-0.5,0.5-0.6c1.2-0.9,2.7-0.9,3.9,0
								C264,313.8,264.2,314.3,264.2,314.8z"></path>
<path class="st15" d="M264,315.6c-0.1,0.1-0.2,0.3-0.3,0.4c-0.1,0.1-0.1,0.1-0.2,0.2c-0.5,0.4-1.1,0.6-1.6,0.7
								c-0.1,0-0.2,0-0.3,0c-0.1,0-0.2,0-0.3,0c-0.6-0.1-1.1-0.3-1.6-0.7c-0.2-0.2-0.4-0.4-0.5-0.6c0.8,0.3,1.6,0.5,2.4,0.5
								C262.5,316,263.3,315.9,264,315.6z"></path>
<path class="st1" d="M266.8,300.3c0,0.3,0,0.5-0.2,0.8c0,0,0,0,0,0c-0.8,0.3-1.6,0.4-2.4,0.4c-0.8,0-1.6-0.1-2.4-0.5
								c-0.1-0.1-0.1-0.3-0.1-0.4c0-0.1,0-0.2,0-0.3c0-0.3,0-0.5,0.2-0.8c0.1-0.2,0.3-0.5,0.5-0.6c1.2-0.9,2.7-0.9,3.9,0
								C266.6,299.3,266.8,299.8,266.8,300.3z"></path>
<path class="st15" d="M266.6,301.1c-0.1,0.1-0.2,0.3-0.3,0.4c-0.1,0.1-0.1,0.1-0.2,0.2c-0.5,0.4-1.1,0.6-1.6,0.7
								c-0.1,0-0.2,0-0.3,0c-0.1,0-0.2,0-0.3,0c-0.6-0.1-1.1-0.3-1.6-0.7c-0.2-0.2-0.4-0.4-0.5-0.6c0.8,0.3,1.6,0.5,2.4,0.5
								C265,301.5,265.8,301.4,266.6,301.1z"></path>
<path class="st1" d="M256.8,304.8c0,0.3,0,0.5-0.2,0.8c0,0,0,0,0,0c-0.8,0.3-1.6,0.4-2.4,0.4s-1.6-0.1-2.4-0.5
								c-0.1-0.1-0.1-0.3-0.1-0.4c0-0.1,0-0.2,0-0.3c0-0.3,0.1-0.5,0.2-0.8c0.1-0.2,0.3-0.5,0.5-0.6c1.2-0.9,2.7-0.9,3.9,0
								C256.6,303.8,256.8,304.3,256.8,304.8z"></path>
 <path class="st15" d="M256.6,305.6c-0.1,0.1-0.2,0.3-0.3,0.4c-0.1,0.1-0.1,0.1-0.2,0.2c-0.5,0.4-1.1,0.6-1.6,0.7
								c-0.1,0-0.2,0-0.3,0c-0.1,0-0.2,0-0.3,0c-0.6-0.1-1.1-0.3-1.6-0.7c-0.2-0.2-0.4-0.4-0.5-0.6c0.8,0.3,1.6,0.5,2.4,0.5
								C255.1,306,255.9,305.9,256.6,305.6z"></path>
<path class="st1" d="M241.8,309.5c0,0.3-0.1,0.5-0.2,0.8c0,0,0,0,0,0c-0.8,0.3-1.6,0.4-2.4,0.4s-1.6-0.1-2.4-0.5
								c-0.1-0.1-0.1-0.3-0.1-0.4c0-0.1,0-0.2,0-0.3c0-0.3,0.1-0.5,0.2-0.8c0.1-0.2,0.3-0.5,0.5-0.6c1.2-0.9,2.7-0.9,3.9,0
								C241.5,308.5,241.8,309,241.8,309.5z"></path>
<path class="st15" d="M241.6,310.3c-0.1,0.1-0.2,0.3-0.3,0.4c-0.1,0.1-0.1,0.1-0.2,0.2c-0.5,0.4-1.1,0.6-1.6,0.7
								c-0.1,0-0.2,0-0.3,0c-0.1,0-0.2,0-0.3,0c-0.6-0.1-1.1-0.3-1.6-0.7c-0.2-0.2-0.4-0.4-0.5-0.6c0.8,0.3,1.6,0.5,2.4,0.5
								C240,310.7,240.8,310.6,241.6,310.3z"></path>
</g>
</g>
<g>
<path class="st14" d="M257.9,294.9c0,2.5-0.5,4.9-1.4,7.2c-0.6,1.5-1.4,2.9-2.4,4.1c-0.5,0.6-1.1,1.2-1.7,1.7
							c-5.1,4.4-11,6.6-16.9,6.6s-11.8-2.2-16.9-6.6c-2.9-2.5-4.6-6.1-5.2-9.9c-0.2-1-0.3-2.1-0.3-3.1c0-2.5,0.5-4.9,1.4-7.2
							c0.9-2.2,2.3-4.3,4.1-5.8c10.2-8.8,23.7-8.8,33.9,0C256.1,285,257.9,289.9,257.9,294.9z"></path>
<path class="st12" d="M257.9,293.5c0,2.3-0.5,4.6-1.4,6.7c-0.6,1.4-1.4,2.7-2.4,3.8c-0.5,0.6-1.1,1.1-1.7,1.6
							c-5.1,4.1-11,6.1-16.9,6.1s-11.8-2-16.9-6.1c-2.9-2.3-4.6-5.6-5.2-9.2c-0.2-1-0.3-1.9-0.3-2.9c0-2.3,0.5-4.6,1.4-6.7
							c0.9-2.1,2.3-4,4.1-5.4c10.2-8.1,23.7-8.1,33.9,0C256.1,284.3,257.9,288.9,257.9,293.5z"></path>
<g>
<path class="st11" d="M226.7,283.2c0,0.3-0.1,0.5-0.2,0.8c0,0,0,0,0,0c-0.8,0.3-1.6,0.4-2.4,0.4s-1.6-0.1-2.4-0.5
								c-0.1-0.1-0.1-0.3-0.1-0.4c0-0.1,0-0.2,0-0.3c0-0.3,0.1-0.5,0.2-0.8c0.1-0.2,0.3-0.5,0.5-0.6c1.2-0.9,2.7-0.9,3.9,0
								C226.5,282.2,226.7,282.7,226.7,283.2z"></path>
<path class="st14" d="M226.5,284c-0.1,0.1-0.2,0.3-0.3,0.4c-0.1,0.1-0.1,0.1-0.2,0.2c-0.5,0.4-1.1,0.6-1.6,0.7
								c-0.1,0-0.2,0-0.3,0c-0.1,0-0.2,0-0.3,0c-0.6-0.1-1.1-0.3-1.6-0.7c-0.2-0.2-0.4-0.4-0.5-0.6c0.8,0.3,1.6,0.5,2.4,0.5
								C225,284.4,225.8,284.3,226.5,284z"></path>
<path class="st11" d="M227.8,290.9c0,0.3-0.1,0.5-0.2,0.8c0,0,0,0,0,0c-0.8,0.3-1.6,0.4-2.4,0.4s-1.6-0.1-2.4-0.5
								c-0.1-0.1-0.1-0.3-0.1-0.4c0-0.1,0-0.2,0-0.3c0-0.3,0.1-0.5,0.2-0.8c0.1-0.2,0.3-0.5,0.5-0.6c1.2-0.9,2.7-0.9,3.9,0
								C227.6,289.8,227.8,290.3,227.8,290.9z"></path>
<path class="st14" d="M227.6,291.6c-0.1,0.1-0.2,0.3-0.3,0.4c-0.1,0.1-0.1,0.1-0.2,0.2c-0.5,0.4-1.1,0.6-1.6,0.7
								c-0.1,0-0.2,0-0.3,0c-0.1,0-0.2,0-0.3,0c-0.6-0.1-1.1-0.3-1.6-0.7c-0.2-0.2-0.4-0.4-0.5-0.6c0.8,0.3,1.6,0.5,2.4,0.5
								C226.1,292.1,226.9,291.9,227.6,291.6z"></path>
<path class="st11" d="M236.9,284.6c0,0.3-0.1,0.5-0.2,0.8c0,0,0,0,0,0c-0.8,0.3-1.6,0.4-2.4,0.4s-1.6-0.1-2.4-0.5
								c-0.1-0.1-0.1-0.3-0.1-0.4c0-0.1,0-0.2,0-0.3c0-0.3,0.1-0.5,0.2-0.8c0.1-0.2,0.3-0.5,0.5-0.6c1.2-0.9,2.7-0.9,3.9,0
								C236.7,283.6,236.9,284.1,236.9,284.6z"></path>
<path class="st14" d="M236.8,285.4c-0.1,0.1-0.2,0.3-0.3,0.4c-0.1,0.1-0.1,0.1-0.2,0.2c-0.5,0.4-1.1,0.6-1.6,0.7
								c-0.1,0-0.2,0-0.3,0c-0.1,0-0.2,0-0.3,0c-0.6-0.1-1.1-0.3-1.6-0.7c-0.2-0.2-0.4-0.4-0.5-0.6c0.8,0.3,1.6,0.5,2.4,0.5
								C235.2,285.9,236,285.7,236.8,285.4z"></path>
<path class="st11" d="M245.8,281.1c0,0.3-0.1,0.5-0.2,0.8c0,0,0,0,0,0c-0.8,0.3-1.6,0.4-2.4,0.4s-1.6-0.1-2.4-0.5
								c-0.1-0.1-0.1-0.3-0.1-0.4c0-0.1,0-0.2,0-0.3c0-0.3,0.1-0.5,0.2-0.8c0.1-0.2,0.3-0.5,0.5-0.6c1.2-0.9,2.7-0.9,3.9,0
								C245.6,280.1,245.8,280.6,245.8,281.1z"></path>
<path class="st14" d="M245.7,281.9c-0.1,0.1-0.2,0.3-0.3,0.4c-0.1,0.1-0.1,0.1-0.2,0.2c-0.5,0.4-1.1,0.6-1.6,0.7
								c-0.1,0-0.2,0-0.3,0c-0.1,0-0.2,0-0.3,0c-0.6-0.1-1.1-0.3-1.6-0.7c-0.2-0.2-0.4-0.4-0.5-0.6c0.8,0.3,1.6,0.5,2.4,0.5
								C244.1,282.4,244.9,282.2,245.7,281.9z"></path>
<path class="st11" d="M252.6,295.8c0,0.3-0.1,0.5-0.2,0.8c0,0,0,0,0,0c-0.8,0.3-1.6,0.4-2.4,0.4s-1.6-0.1-2.4-0.5
								c-0.1-0.1-0.1-0.3-0.1-0.4c0-0.1,0-0.2,0-0.3c0-0.3,0.1-0.5,0.2-0.8c0.1-0.2,0.3-0.5,0.5-0.6c1.2-0.9,2.7-0.9,3.9,0
								C252.4,294.7,252.6,295.2,252.6,295.8z"></path>
<path class="st14" d="M252.4,296.5c-0.1,0.1-0.2,0.3-0.3,0.4c-0.1,0.1-0.1,0.1-0.2,0.2c-0.5,0.4-1.1,0.6-1.6,0.7
								c-0.1,0-0.2,0-0.3,0c-0.1,0-0.2,0-0.3,0c-0.6-0.1-1.1-0.3-1.6-0.7c-0.2-0.2-0.4-0.4-0.5-0.6c0.8,0.3,1.6,0.5,2.4,0.5
								C250.8,297,251.6,296.8,252.4,296.5z"></path>
<path class="st11" d="M235.3,302.5c0,0.3-0.1,0.5-0.2,0.8c0,0,0,0,0,0c-0.8,0.3-1.6,0.4-2.4,0.4s-1.6-0.1-2.4-0.5
								c-0.1-0.1-0.1-0.3-0.1-0.4c0-0.1,0-0.2,0-0.3c0-0.3,0.1-0.5,0.2-0.8c0.1-0.2,0.3-0.5,0.5-0.6c1.2-0.9,2.7-0.9,3.9,0
								C235.1,301.5,235.3,302,235.3,302.5z"></path>
<path class="st14" d="M235.1,303.3c-0.1,0.1-0.2,0.3-0.3,0.4c-0.1,0.1-0.1,0.1-0.2,0.2c-0.5,0.4-1.1,0.6-1.6,0.7
								c-0.1,0-0.2,0-0.3,0c-0.1,0-0.2,0-0.3,0c-0.6-0.1-1.1-0.3-1.6-0.7c-0.2-0.2-0.4-0.4-0.5-0.6c0.8,0.3,1.6,0.5,2.4,0.5
								C233.5,303.7,234.3,303.6,235.1,303.3z"></path>
<path class="st1" d="M245.8,302.5c0,0.3-0.1,0.5-0.2,0.8c0,0,0,0,0,0c-0.8,0.3-1.6,0.4-2.4,0.4s-1.6-0.1-2.4-0.5
								c-0.1-0.1-0.1-0.3-0.1-0.4c0-0.1,0-0.2,0-0.3c0-0.3,0.1-0.5,0.2-0.8c0.1-0.2,0.3-0.5,0.5-0.6c1.2-0.9,2.7-0.9,3.9,0
								C245.6,301.5,245.8,302,245.8,302.5z"></path>
<path class="st15" d="M245.7,303.3c-0.1,0.1-0.2,0.3-0.3,0.4c-0.1,0.1-0.1,0.1-0.2,0.2c-0.5,0.4-1.1,0.6-1.6,0.7
								c-0.1,0-0.2,0-0.3,0c-0.1,0-0.2,0-0.3,0c-0.6-0.1-1.1-0.3-1.6-0.7c-0.2-0.2-0.4-0.4-0.5-0.6c0.8,0.3,1.6,0.5,2.4,0.5
								C244.1,303.7,244.9,303.6,245.7,303.3z"></path>
<path class="st1" d="M248.4,288c0,0.3-0.1,0.5-0.2,0.8c0,0,0,0,0,0c-0.8,0.3-1.6,0.4-2.4,0.4s-1.6-0.1-2.4-0.5
								c-0.1-0.1-0.1-0.3-0.1-0.4c0-0.1,0-0.2,0-0.3c0-0.3,0.1-0.5,0.2-0.8c0.1-0.2,0.3-0.5,0.5-0.6c1.2-0.9,2.7-0.9,3.9,0
								C248.2,287,248.4,287.5,248.4,288z"></path>
<path class="st15" d="M248.2,288.8c-0.1,0.1-0.2,0.3-0.3,0.4c-0.1,0.1-0.1,0.1-0.2,0.2c-0.5,0.4-1.1,0.6-1.6,0.7
								c-0.1,0-0.2,0-0.3,0c-0.1,0-0.2,0-0.3,0c-0.6-0.1-1.1-0.3-1.6-0.7c-0.2-0.2-0.4-0.4-0.5-0.6c0.8,0.3,1.6,0.5,2.4,0.5
								C246.6,289.2,247.4,289.1,248.2,288.8z"></path>
<path class="st1" d="M238.4,292.5c0,0.3-0.1,0.5-0.2,0.8c0,0,0,0,0,0c-0.8,0.3-1.6,0.4-2.4,0.4s-1.6-0.1-2.4-0.5
								c-0.1-0.1-0.1-0.3-0.1-0.4c0-0.1,0-0.2,0-0.3c0-0.3,0.1-0.5,0.2-0.8c0.1-0.2,0.3-0.5,0.5-0.6c1.2-0.9,2.7-0.9,3.9,0
								C238.2,291.5,238.4,292,238.4,292.5z"></path>
<path class="st15" d="M238.3,293.3c-0.1,0.1-0.2,0.3-0.3,0.4c-0.1,0.1-0.1,0.1-0.2,0.2c-0.5,0.4-1.1,0.6-1.6,0.7
								c-0.1,0-0.2,0-0.3,0c-0.1,0-0.2,0-0.3,0c-0.6-0.1-1.1-0.3-1.6-0.7c-0.2-0.2-0.4-0.4-0.5-0.6c0.8,0.3,1.6,0.5,2.4,0.5
								C236.7,293.7,237.5,293.6,238.3,293.3z"></path>
<path class="st1" d="M223.4,297.2c0,0.3-0.1,0.5-0.2,0.8c0,0,0,0,0,0c-0.8,0.3-1.6,0.4-2.4,0.4s-1.6-0.1-2.4-0.5
								c-0.1-0.1-0.1-0.3-0.1-0.4c0-0.1,0-0.2,0-0.3c0-0.3,0.1-0.5,0.2-0.8c0.1-0.2,0.3-0.5,0.5-0.6c1.2-0.9,2.7-0.9,3.9,0
								C223.2,296.1,223.4,296.7,223.4,297.2z"></path>
<path class="st15" d="M223.2,298c-0.1,0.1-0.2,0.3-0.3,0.4c-0.1,0.1-0.1,0.1-0.2,0.2c-0.5,0.4-1.1,0.6-1.6,0.7
								c-0.1,0-0.2,0-0.3,0c-0.1,0-0.2,0-0.3,0c-0.6-0.1-1.1-0.3-1.6-0.7c-0.2-0.2-0.4-0.4-0.5-0.6c0.8,0.3,1.6,0.5,2.4,0.5
								C221.6,298.4,222.4,298.3,223.2,298z"></path>
</g>
</g>
<g>
<path class="st14" d="M277.4,289c0,2.5-0.5,4.9-1.4,7.2c-0.6,1.5-1.4,2.9-2.5,4.1c-0.5,0.6-1.1,1.2-1.7,1.7
							c-5.1,4.4-11,6.6-16.9,6.6s-11.8-2.2-16.9-6.6c-2.9-2.5-4.6-6.1-5.2-9.9c-0.2-1-0.3-2.1-0.3-3.1c0-2.5,0.5-4.9,1.4-7.2
							c0.9-2.2,2.3-4.3,4.1-5.8c10.2-8.8,23.7-8.8,33.9,0C275.6,279.2,277.4,284.1,277.4,289z"></path>
<path class="st12" d="M277.4,287.6c0,2.3-0.5,4.6-1.4,6.7c-0.6,1.4-1.4,2.7-2.5,3.8c-0.5,0.6-1.1,1.1-1.7,1.6
							c-5.1,4.1-11,6.1-16.9,6.1s-11.8-2-16.9-6.1c-2.9-2.3-4.6-5.6-5.2-9.2c-0.2-1-0.3-1.9-0.3-2.9c0-2.3,0.5-4.6,1.4-6.7
							c0.9-2.1,2.3-4,4.1-5.4c10.2-8.1,23.7-8.1,33.9,0C275.6,278.5,277.4,283,277.4,287.6z"></path>
<g>
<path class="st11" d="M246.2,277.4c0,0.3-0.1,0.5-0.2,0.8c0,0,0,0,0,0c-0.8,0.3-1.6,0.4-2.4,0.4s-1.6-0.1-2.4-0.5
								c-0.1-0.1-0.1-0.3-0.1-0.4c0-0.1,0-0.2,0-0.3c0-0.3,0.1-0.5,0.2-0.8c0.1-0.2,0.3-0.5,0.5-0.6c1.2-0.9,2.7-0.9,3.9,0
								C246,276.3,246.2,276.8,246.2,277.4z"></path>
<path class="st14" d="M246,278.1c-0.1,0.1-0.2,0.3-0.3,0.4c-0.1,0.1-0.1,0.1-0.2,0.2c-0.5,0.4-1.1,0.6-1.6,0.7
								c-0.1,0-0.2,0-0.3,0c-0.1,0-0.2,0-0.3,0c-0.6-0.1-1.1-0.3-1.6-0.7c-0.2-0.2-0.4-0.4-0.5-0.6c0.8,0.3,1.6,0.5,2.4,0.5
								C244.4,278.6,245.2,278.4,246,278.1z"></path>
<path class="st11" d="M247.3,285c0,0.3-0.1,0.5-0.2,0.8c0,0,0,0,0,0c-0.8,0.3-1.6,0.4-2.4,0.4s-1.6-0.1-2.4-0.5
								c-0.1-0.1-0.1-0.3-0.1-0.4c0-0.1,0-0.2,0-0.3c0-0.3,0.1-0.5,0.2-0.8c0.1-0.2,0.3-0.5,0.5-0.6c1.2-0.9,2.7-0.9,3.9,0
								C247.1,284,247.3,284.5,247.3,285z"></path>
<path class="st14" d="M247.1,285.8c-0.1,0.1-0.2,0.3-0.3,0.4c-0.1,0.1-0.1,0.1-0.2,0.2c-0.5,0.4-1.1,0.6-1.6,0.7
								c-0.1,0-0.2,0-0.3,0c-0.1,0-0.2,0-0.3,0c-0.6-0.1-1.1-0.3-1.6-0.7c-0.2-0.2-0.4-0.4-0.5-0.6c0.8,0.3,1.6,0.5,2.4,0.5
								C245.5,286.2,246.4,286.1,247.1,285.8z"></path>
<path class="st11" d="M256.4,278.8c0,0.3,0,0.5-0.2,0.8c0,0,0,0,0,0c-0.8,0.3-1.6,0.4-2.4,0.4s-1.6-0.1-2.4-0.5
								c-0.1-0.1-0.1-0.3-0.1-0.4c0-0.1,0-0.2,0-0.3c0-0.3,0.1-0.5,0.2-0.8c0.1-0.2,0.3-0.5,0.5-0.6c1.2-0.9,2.7-0.9,3.9,0
								C256.2,277.7,256.4,278.3,256.4,278.8z"></path>
<path class="st14" d="M256.3,279.6c-0.1,0.1-0.2,0.3-0.3,0.4c-0.1,0.1-0.1,0.1-0.2,0.2c-0.5,0.4-1.1,0.6-1.6,0.7
								c-0.1,0-0.2,0-0.3,0c-0.1,0-0.2,0-0.3,0c-0.6-0.1-1.1-0.3-1.6-0.7c-0.2-0.2-0.4-0.4-0.5-0.6c0.8,0.3,1.6,0.5,2.4,0.5
								C254.7,280,255.5,279.9,256.3,279.6z"></path>
<path class="st11" d="M265.3,275.3c0,0.3,0,0.5-0.2,0.8c0,0,0,0,0,0c-0.8,0.3-1.6,0.4-2.4,0.4c-0.8,0-1.6-0.1-2.4-0.5
								c-0.1-0.1-0.1-0.3-0.1-0.4c0-0.1,0-0.2,0-0.3c0-0.3,0-0.5,0.2-0.8c0.1-0.2,0.3-0.5,0.5-0.6c1.2-0.9,2.7-0.9,3.9,0
								C265.1,274.3,265.3,274.8,265.3,275.3z"></path>
<path class="st14" d="M265.1,276.1c-0.1,0.1-0.2,0.3-0.3,0.4c-0.1,0.1-0.1,0.1-0.2,0.2c-0.5,0.4-1.1,0.6-1.6,0.7
								c-0.1,0-0.2,0-0.3,0c-0.1,0-0.2,0-0.3,0c-0.6-0.1-1.1-0.3-1.6-0.7c-0.2-0.2-0.4-0.4-0.5-0.6c0.8,0.3,1.6,0.5,2.4,0.5
								C263.6,276.5,264.4,276.4,265.1,276.1z"></path>
<path class="st11" d="M272,289.9c0,0.3,0,0.5-0.2,0.8c0,0,0,0,0,0c-0.8,0.3-1.6,0.4-2.4,0.4c-0.8,0-1.6-0.1-2.4-0.5
								c-0.1-0.1-0.1-0.3-0.1-0.4c0-0.1,0-0.2,0-0.3c0-0.3,0-0.5,0.2-0.8c0.1-0.2,0.3-0.5,0.5-0.6c1.2-0.9,2.7-0.9,3.9,0
								C271.8,288.9,272,289.4,272,289.9z"></path>
<path class="st14" d="M271.9,290.7c-0.1,0.1-0.2,0.3-0.3,0.4c-0.1,0.1-0.1,0.1-0.2,0.2c-0.5,0.4-1.1,0.6-1.6,0.7
								c-0.1,0-0.2,0-0.3,0c-0.1,0-0.2,0-0.3,0c-0.6-0.1-1.1-0.3-1.6-0.7c-0.2-0.2-0.4-0.4-0.5-0.6c0.8,0.3,1.6,0.5,2.4,0.5
								C270.3,291.1,271.1,291,271.9,290.7z"></path>
<path class="st11" d="M254.8,296.6c0,0.3-0.1,0.5-0.2,0.8c0,0,0,0,0,0c-0.8,0.3-1.6,0.4-2.4,0.4s-1.6-0.1-2.4-0.5
								c-0.1-0.1-0.1-0.3-0.1-0.4c0-0.1,0-0.2,0-0.3c0-0.3,0.1-0.5,0.2-0.8c0.1-0.2,0.3-0.5,0.5-0.6c1.2-0.9,2.7-0.9,3.9,0
								C254.6,295.6,254.8,296.1,254.8,296.6z"></path>
<path class="st14" d="M254.6,297.4c-0.1,0.1-0.2,0.3-0.3,0.4c-0.1,0.1-0.1,0.1-0.2,0.2c-0.5,0.4-1.1,0.6-1.6,0.7
								c-0.1,0-0.2,0-0.3,0c-0.1,0-0.2,0-0.3,0c-0.6-0.1-1.1-0.3-1.6-0.7c-0.2-0.2-0.4-0.4-0.5-0.6c0.8,0.3,1.6,0.5,2.4,0.5
								C253,297.9,253.8,297.7,254.6,297.4z"></path>
<path class="st1" d="M265.3,296.6c0,0.3,0,0.5-0.2,0.8c0,0,0,0,0,0c-0.8,0.3-1.6,0.4-2.4,0.4c-0.8,0-1.6-0.1-2.4-0.5
								c-0.1-0.1-0.1-0.3-0.1-0.4c0-0.1,0-0.2,0-0.3c0-0.3,0-0.5,0.2-0.8c0.1-0.2,0.3-0.5,0.5-0.6c1.2-0.9,2.7-0.9,3.9,0
								C265.1,295.6,265.3,296.1,265.3,296.6z"></path>
<path class="st15" d="M265.1,297.4c-0.1,0.1-0.2,0.3-0.3,0.4c-0.1,0.1-0.1,0.1-0.2,0.2c-0.5,0.4-1.1,0.6-1.6,0.7
								c-0.1,0-0.2,0-0.3,0c-0.1,0-0.2,0-0.3,0c-0.6-0.1-1.1-0.3-1.6-0.7c-0.2-0.2-0.4-0.4-0.5-0.6c0.8,0.3,1.6,0.5,2.4,0.5
								C263.6,297.9,264.4,297.7,265.1,297.4z"></path>
<path class="st1" d="M267.9,282.2c0,0.3,0,0.5-0.2,0.8c0,0,0,0,0,0c-0.8,0.3-1.6,0.4-2.4,0.4c-0.8,0-1.6-0.1-2.4-0.5
								c-0.1-0.1-0.1-0.3-0.1-0.4c0-0.1,0-0.2,0-0.3c0-0.3,0-0.5,0.2-0.8c0.1-0.2,0.3-0.5,0.5-0.6c1.2-0.9,2.7-0.9,3.9,0
								C267.7,281.1,267.9,281.7,267.9,282.2z"></path>
<path class="st15" d="M267.7,283c-0.1,0.1-0.2,0.3-0.3,0.4c-0.1,0.1-0.1,0.1-0.2,0.2c-0.5,0.4-1.1,0.6-1.6,0.7
								c-0.1,0-0.2,0-0.3,0c-0.1,0-0.2,0-0.3,0c-0.6-0.1-1.1-0.3-1.6-0.7c-0.2-0.2-0.4-0.4-0.5-0.6c0.8,0.3,1.6,0.5,2.4,0.5
								C266.1,283.4,266.9,283.3,267.7,283z"></path>
<path class="st1" d="M257.9,286.7c0,0.3,0,0.5-0.2,0.8c0,0,0,0,0,0c-0.8,0.3-1.6,0.4-2.4,0.4c-0.8,0-1.6-0.1-2.4-0.5
								c-0.1-0.1-0.1-0.3-0.1-0.4c0-0.1,0-0.2,0-0.3c0-0.3,0.1-0.5,0.2-0.8c0.1-0.2,0.3-0.5,0.5-0.6c1.2-0.9,2.7-0.9,3.9,0
								C257.7,285.6,257.9,286.1,257.9,286.7z"></path>
<path class="st15" d="M257.7,287.5c-0.1,0.1-0.2,0.3-0.3,0.4c-0.1,0.1-0.1,0.1-0.2,0.2c-0.5,0.4-1.1,0.6-1.6,0.7
								c-0.1,0-0.2,0-0.3,0c-0.1,0-0.2,0-0.3,0c-0.6-0.1-1.1-0.3-1.6-0.7c-0.2-0.2-0.4-0.4-0.5-0.6c0.8,0.3,1.6,0.5,2.4,0.5
								C256.1,287.9,257,287.8,257.7,287.5z"></path>
<path class="st1" d="M242.8,291.4c0,0.3-0.1,0.5-0.2,0.8c0,0,0,0,0,0c-0.8,0.3-1.6,0.4-2.4,0.4s-1.6-0.1-2.4-0.5
								c-0.1-0.1-0.1-0.3-0.1-0.4c0-0.1,0-0.2,0-0.3c0-0.3,0.1-0.5,0.2-0.8c0.1-0.2,0.3-0.5,0.5-0.6c1.2-0.9,2.7-0.9,3.9,0
								C242.6,290.3,242.8,290.8,242.8,291.4z"></path>
<path class="st15" d="M242.7,292.1c-0.1,0.1-0.2,0.3-0.3,0.4c-0.1,0.1-0.1,0.1-0.2,0.2c-0.5,0.4-1.1,0.6-1.6,0.7
								c-0.1,0-0.2,0-0.3,0c-0.1,0-0.2,0-0.3,0c-0.6-0.1-1.1-0.3-1.6-0.7c-0.2-0.2-0.4-0.4-0.5-0.6c0.8,0.3,1.6,0.5,2.4,0.5
								C241.1,292.6,241.9,292.4,242.7,292.1z"></path>
</g>
</g>
<g>
<path class="st14" d="M257.4,277c0,2.5-0.5,4.9-1.4,7.2c-0.6,1.5-1.4,2.9-2.4,4.1c-0.5,0.6-1.1,1.2-1.7,1.7
							c-5.1,4.4-11,6.6-16.9,6.6s-11.8-2.2-16.9-6.6c-2.9-2.5-4.6-6.1-5.2-9.9c-0.2-1-0.3-2.1-0.3-3.1c0-2.5,0.5-4.9,1.4-7.2
							c0.9-2.2,2.3-4.3,4.1-5.8c10.2-8.8,23.7-8.8,33.9,0C255.6,267.2,257.4,272.1,257.4,277z"></path>
<path class="st12" d="M257.4,275.6c0,2.3-0.5,4.6-1.4,6.7c-0.6,1.4-1.4,2.7-2.4,3.8c-0.5,0.6-1.1,1.1-1.7,1.6
							c-5.1,4.1-11,6.1-16.9,6.1s-11.8-2-16.9-6.1c-2.9-2.3-4.6-5.6-5.2-9.2c-0.2-1-0.3-1.9-0.3-2.9c0-2.3,0.5-4.6,1.4-6.7
							c0.9-2.1,2.3-4,4.1-5.4c10.2-8.1,23.7-8.1,33.9,0C255.6,266.5,257.4,271,257.4,275.6z"></path>
<g>
<path class="st11" d="M226.2,265.4c0,0.3-0.1,0.5-0.2,0.8c0,0,0,0,0,0c-0.8,0.3-1.6,0.4-2.4,0.4s-1.6-0.1-2.4-0.5
								c-0.1-0.1-0.1-0.3-0.1-0.4c0-0.1,0-0.2,0-0.3c0-0.3,0.1-0.5,0.2-0.8c0.1-0.2,0.3-0.5,0.5-0.6c1.2-0.9,2.7-0.9,3.9,0
								C226,264.3,226.2,264.8,226.2,265.4z"></path>
<path class="st14" d="M226,266.1c-0.1,0.1-0.2,0.3-0.3,0.4c-0.1,0.1-0.1,0.1-0.2,0.2c-0.5,0.4-1.1,0.6-1.6,0.7
								c-0.1,0-0.2,0-0.3,0c-0.1,0-0.2,0-0.3,0c-0.6-0.1-1.1-0.3-1.6-0.7c-0.2-0.2-0.4-0.4-0.5-0.6c0.8,0.3,1.6,0.5,2.4,0.5
								C224.5,266.6,225.3,266.4,226,266.1z"></path>
<path class="st11" d="M227.3,273c0,0.3-0.1,0.5-0.2,0.8c0,0,0,0,0,0c-0.8,0.3-1.6,0.4-2.4,0.4s-1.6-0.1-2.4-0.5
								c-0.1-0.1-0.1-0.3-0.1-0.4c0-0.1,0-0.2,0-0.3c0-0.3,0.1-0.5,0.2-0.8c0.1-0.2,0.3-0.5,0.5-0.6c1.2-0.9,2.7-0.9,3.9,0
								C227.1,272,227.3,272.5,227.3,273z"></path>
<path class="st14" d="M227.1,273.8c-0.1,0.1-0.2,0.3-0.3,0.4c-0.1,0.1-0.1,0.1-0.2,0.2c-0.5,0.4-1.1,0.6-1.6,0.7
								c-0.1,0-0.2,0-0.3,0c-0.1,0-0.2,0-0.3,0c-0.6-0.1-1.1-0.3-1.6-0.7c-0.2-0.2-0.4-0.4-0.5-0.6c0.8,0.3,1.6,0.5,2.4,0.5
								C225.6,274.3,226.4,274.1,227.1,273.8z"></path>
<path class="st11" d="M236.4,266.8c0,0.3-0.1,0.5-0.2,0.8c0,0,0,0,0,0c-0.8,0.3-1.6,0.4-2.4,0.4s-1.6-0.1-2.4-0.5
								c-0.1-0.1-0.1-0.3-0.1-0.4c0-0.1,0-0.2,0-0.3c0-0.3,0.1-0.5,0.2-0.8c0.1-0.2,0.3-0.5,0.5-0.6c1.2-0.9,2.7-0.9,3.9,0
								C236.2,265.8,236.4,266.3,236.4,266.8z"></path>
<path class="st14" d="M236.3,267.6c-0.1,0.1-0.2,0.3-0.3,0.4c-0.1,0.1-0.1,0.1-0.2,0.2c-0.5,0.4-1.1,0.6-1.6,0.7
								c-0.1,0-0.2,0-0.3,0c-0.1,0-0.2,0-0.3,0c-0.6-0.1-1.1-0.3-1.6-0.7c-0.2-0.2-0.4-0.4-0.5-0.6c0.8,0.3,1.6,0.5,2.4,0.5
								C234.7,268,235.5,267.9,236.3,267.6z"></path>
<path class="st11" d="M245.3,263.3c0,0.3-0.1,0.5-0.2,0.8c0,0,0,0,0,0c-0.8,0.3-1.6,0.4-2.4,0.4s-1.6-0.1-2.4-0.5
								c-0.1-0.1-0.1-0.3-0.1-0.4c0-0.1,0-0.2,0-0.3c0-0.3,0.1-0.5,0.2-0.8c0.1-0.2,0.3-0.5,0.5-0.6c1.2-0.9,2.7-0.9,3.9,0
								C245.1,262.3,245.3,262.8,245.3,263.3z"></path>
<path class="st14" d="M245.2,264.1c-0.1,0.1-0.2,0.3-0.3,0.4c-0.1,0.1-0.1,0.1-0.2,0.2c-0.5,0.4-1.1,0.6-1.6,0.7
								c-0.1,0-0.2,0-0.3,0c-0.1,0-0.2,0-0.3,0c-0.6-0.1-1.1-0.3-1.6-0.7c-0.2-0.2-0.4-0.4-0.5-0.6c0.8,0.3,1.6,0.5,2.4,0.5
								C243.6,264.5,244.4,264.4,245.2,264.1z"></path>
<path class="st11" d="M252.1,277.9c0,0.3-0.1,0.5-0.2,0.8c0,0,0,0,0,0c-0.8,0.3-1.6,0.4-2.4,0.4s-1.6-0.1-2.4-0.5
								c-0.1-0.1-0.1-0.3-0.1-0.4c0-0.1,0-0.2,0-0.3c0-0.3,0.1-0.5,0.2-0.8c0.1-0.2,0.3-0.5,0.5-0.6c1.2-0.9,2.7-0.9,3.9,0
								C251.9,276.9,252.1,277.4,252.1,277.9z"></path>
<path class="st14" d="M251.9,278.7c-0.1,0.1-0.2,0.3-0.3,0.4c-0.1,0.1-0.1,0.1-0.2,0.2c-0.5,0.4-1.1,0.6-1.6,0.7
								c-0.1,0-0.2,0-0.3,0c-0.1,0-0.2,0-0.3,0c-0.6-0.1-1.1-0.3-1.6-0.7c-0.2-0.2-0.4-0.4-0.5-0.6c0.8,0.3,1.6,0.5,2.4,0.5
								C250.3,279.1,251.1,279,251.9,278.7z"></path>
<path class="st11" d="M234.8,284.6c0,0.3-0.1,0.5-0.2,0.8c0,0,0,0,0,0c-0.8,0.3-1.6,0.4-2.4,0.4s-1.6-0.1-2.4-0.5
								c-0.1-0.1-0.1-0.3-0.1-0.4c0-0.1,0-0.2,0-0.3c0-0.3,0.1-0.5,0.2-0.8c0.1-0.2,0.3-0.5,0.5-0.6c1.2-0.9,2.7-0.9,3.9,0
								C234.6,283.6,234.8,284.1,234.8,284.6z"></path>
<path class="st14" d="M234.6,285.4c-0.1,0.1-0.2,0.3-0.3,0.4c-0.1,0.1-0.1,0.1-0.2,0.2c-0.5,0.4-1.1,0.6-1.6,0.7
								c-0.1,0-0.2,0-0.3,0c-0.1,0-0.2,0-0.3,0c-0.6-0.1-1.1-0.3-1.6-0.7c-0.2-0.2-0.4-0.4-0.5-0.6c0.8,0.3,1.6,0.5,2.4,0.5
								C233,285.9,233.8,285.7,234.6,285.4z"></path>
<path class="st1" d="M245.3,284.6c0,0.3-0.1,0.5-0.2,0.8c0,0,0,0,0,0c-0.8,0.3-1.6,0.4-2.4,0.4s-1.6-0.1-2.4-0.5
								c-0.1-0.1-0.1-0.3-0.1-0.4c0-0.1,0-0.2,0-0.3c0-0.3,0.1-0.5,0.2-0.8c0.1-0.2,0.3-0.5,0.5-0.6c1.2-0.9,2.7-0.9,3.9,0
								C245.1,283.6,245.3,284.1,245.3,284.6z"></path>
<path class="st15" d="M245.2,285.4c-0.1,0.1-0.2,0.3-0.3,0.4c-0.1,0.1-0.1,0.1-0.2,0.2c-0.5,0.4-1.1,0.6-1.6,0.7
								c-0.1,0-0.2,0-0.3,0c-0.1,0-0.2,0-0.3,0c-0.6-0.1-1.1-0.3-1.6-0.7c-0.2-0.2-0.4-0.4-0.5-0.6c0.8,0.3,1.6,0.5,2.4,0.5
								C243.6,285.9,244.4,285.7,245.2,285.4z"></path>
<path class="st1" d="M247.9,270.2c0,0.3-0.1,0.5-0.2,0.8c0,0,0,0,0,0c-0.8,0.3-1.6,0.4-2.4,0.4s-1.6-0.1-2.4-0.5
								c-0.1-0.1-0.1-0.3-0.1-0.4c0-0.1,0-0.2,0-0.3c0-0.3,0.1-0.5,0.2-0.8c0.1-0.2,0.3-0.5,0.5-0.6c1.2-0.9,2.7-0.9,3.9,0
								C247.7,269.1,247.9,269.7,247.9,270.2z"></path>
<path class="st15" d="M247.7,271c-0.1,0.1-0.2,0.3-0.3,0.4c-0.1,0.1-0.1,0.1-0.2,0.2c-0.5,0.4-1.1,0.6-1.6,0.7
								c-0.1,0-0.2,0-0.3,0c-0.1,0-0.2,0-0.3,0c-0.6-0.1-1.1-0.3-1.6-0.7c-0.2-0.2-0.4-0.4-0.5-0.6c0.8,0.3,1.6,0.5,2.4,0.5
								C246.1,271.4,246.9,271.3,247.7,271z"></path>
<path class="st1" d="M237.9,274.7c0,0.3-0.1,0.5-0.2,0.8c0,0,0,0,0,0c-0.8,0.3-1.6,0.4-2.4,0.4s-1.6-0.1-2.4-0.5
								c-0.1-0.1-0.1-0.3-0.1-0.4c0-0.1,0-0.2,0-0.3c0-0.3,0.1-0.5,0.2-0.8c0.1-0.2,0.3-0.5,0.5-0.6c1.2-0.9,2.7-0.9,3.9,0
								C237.7,273.6,237.9,274.1,237.9,274.7z"></path>
<path class="st15" d="M237.8,275.5c-0.1,0.1-0.2,0.3-0.3,0.4c-0.1,0.1-0.1,0.1-0.2,0.2c-0.5,0.4-1.1,0.6-1.6,0.7
								c-0.1,0-0.2,0-0.3,0c-0.1,0-0.2,0-0.3,0c-0.6-0.1-1.1-0.3-1.6-0.7c-0.2-0.2-0.4-0.4-0.5-0.6c0.8,0.3,1.6,0.5,2.4,0.5
								C236.2,275.9,237,275.8,237.8,275.5z"></path>
<path class="st1" d="M222.9,279.4c0,0.3-0.1,0.5-0.2,0.8c0,0,0,0,0,0c-0.8,0.3-1.6,0.4-2.4,0.4s-1.6-0.1-2.4-0.5
								c-0.1-0.1-0.1-0.3-0.1-0.4c0-0.1,0-0.2,0-0.3c0-0.3,0.1-0.5,0.2-0.8c0.1-0.2,0.3-0.5,0.5-0.6c1.2-0.9,2.7-0.9,3.9,0
								C222.6,278.3,222.9,278.8,222.9,279.4z"></path>
<path class="st15" d="M222.7,280.1c-0.1,0.1-0.2,0.3-0.3,0.4c-0.1,0.1-0.1,0.1-0.2,0.2c-0.5,0.4-1.1,0.6-1.6,0.7
								c-0.1,0-0.2,0-0.3,0c-0.1,0-0.2,0-0.3,0c-0.6-0.1-1.1-0.3-1.6-0.7c-0.2-0.2-0.4-0.4-0.5-0.6c0.8,0.3,1.6,0.5,2.4,0.5
								C221.1,280.6,221.9,280.4,222.7,280.1z"></path>
</g>
</g>
<g>
<path class="st14" d="M273.9,261.9c0,2.5-0.5,4.9-1.4,7.2c-0.6,1.5-1.4,2.9-2.5,4.1c-0.5,0.6-1.1,1.2-1.7,1.7
							c-5.1,4.4-11,6.6-16.9,6.6s-11.8-2.2-16.9-6.6c-2.9-2.5-4.6-6.1-5.2-9.9c-0.2-1-0.3-2.1-0.3-3.1c0-2.5,0.5-4.9,1.4-7.2
							c0.9-2.2,2.3-4.3,4.1-5.8c10.2-8.8,23.7-8.8,33.9,0C272.1,252,273.9,256.9,273.9,261.9z"></path>
<path class="st12" d="M273.9,260.4c0,2.3-0.5,4.6-1.4,6.7c-0.6,1.4-1.4,2.7-2.5,3.8c-0.5,0.6-1.1,1.1-1.7,1.6
							c-5.1,4.1-11,6.1-16.9,6.1s-11.8-2-16.9-6.1c-2.9-2.3-4.6-5.6-5.2-9.2c-0.2-1-0.3-1.9-0.3-2.9c0-2.3,0.5-4.6,1.4-6.7
							c0.9-2.1,2.3-4,4.1-5.4c10.2-8.1,23.7-8.1,33.9,0C272.1,251.3,273.9,255.9,273.9,260.4z"></path>
<g>
<path class="st11" d="M242.7,250.2c0,0.3-0.1,0.5-0.2,0.8c0,0,0,0,0,0c-0.8,0.3-1.6,0.4-2.4,0.4s-1.6-0.1-2.4-0.4
								c-0.1-0.1-0.1-0.3-0.1-0.4c0-0.1,0-0.2,0-0.3c0-0.3,0.1-0.5,0.2-0.8c0.1-0.2,0.3-0.4,0.5-0.6c1.2-0.9,2.7-0.9,3.9,0
								C242.5,249.1,242.7,249.6,242.7,250.2z"></path>
<path class="st14" d="M242.5,250.9c-0.1,0.1-0.2,0.3-0.3,0.4c-0.1,0.1-0.1,0.1-0.2,0.2c-0.5,0.4-1.1,0.6-1.6,0.7
								c-0.1,0-0.2,0-0.3,0c-0.1,0-0.2,0-0.3,0c-0.6-0.1-1.1-0.3-1.6-0.7c-0.2-0.2-0.4-0.4-0.5-0.6c0.8,0.3,1.6,0.4,2.4,0.4
								C240.9,251.4,241.7,251.3,242.5,250.9z"></path>
<path class="st11" d="M243.8,257.8c0,0.3-0.1,0.5-0.2,0.8c0,0,0,0,0,0c-0.8,0.3-1.6,0.4-2.4,0.4s-1.6-0.1-2.4-0.5
								c-0.1-0.1-0.1-0.3-0.1-0.4c0-0.1,0-0.2,0-0.3c0-0.3,0.1-0.5,0.2-0.8c0.1-0.2,0.3-0.5,0.5-0.6c1.2-0.9,2.7-0.9,3.9,0
								C243.6,256.8,243.8,257.3,243.8,257.8z"></path>
<path class="st14" d="M243.6,258.6c-0.1,0.1-0.2,0.3-0.3,0.4c-0.1,0.1-0.1,0.1-0.2,0.2c-0.5,0.4-1.1,0.6-1.6,0.7
								c-0.1,0-0.2,0-0.3,0c-0.1,0-0.2,0-0.3,0c-0.6-0.1-1.1-0.3-1.6-0.7c-0.2-0.2-0.4-0.4-0.5-0.6c0.8,0.3,1.6,0.5,2.4,0.5
								C242.1,259,242.9,258.9,243.6,258.6z"></path>
<path class="st11" d="M252.9,251.6c0,0.3-0.1,0.5-0.2,0.8c0,0,0,0,0,0c-0.8,0.3-1.6,0.4-2.4,0.4s-1.6-0.1-2.4-0.4
								c-0.1-0.1-0.1-0.3-0.1-0.4c0-0.1,0-0.2,0-0.3c0-0.3,0.1-0.5,0.2-0.8c0.1-0.2,0.3-0.4,0.5-0.6c1.2-0.9,2.7-0.9,3.9,0
								C252.7,250.6,252.9,251.1,252.9,251.6z"></path>
<path class="st14" d="M252.8,252.4c-0.1,0.1-0.2,0.3-0.3,0.4c-0.1,0.1-0.1,0.1-0.2,0.2c-0.5,0.4-1.1,0.6-1.6,0.7
								c-0.1,0-0.2,0-0.3,0c-0.1,0-0.2,0-0.3,0c-0.6-0.1-1.1-0.3-1.6-0.7c-0.2-0.2-0.4-0.4-0.5-0.6c0.8,0.3,1.6,0.4,2.4,0.4
								C251.2,252.8,252,252.7,252.8,252.4z"></path>
<path class="st11" d="M261.8,248.1c0,0.3,0,0.5-0.2,0.8c0,0,0,0,0,0c-0.8,0.3-1.6,0.4-2.4,0.4c-0.8,0-1.6-0.1-2.4-0.4
								c-0.1-0.1-0.1-0.3-0.1-0.4c0-0.1,0-0.2,0-0.3c0-0.3,0-0.5,0.2-0.8c0.1-0.2,0.3-0.4,0.5-0.6c1.2-0.9,2.7-0.9,3.9,0
								C261.6,247.1,261.8,247.6,261.8,248.1z"></path>
<path class="st14" d="M261.6,248.9c-0.1,0.1-0.2,0.3-0.3,0.4c-0.1,0.1-0.1,0.1-0.2,0.2c-0.5,0.4-1.1,0.6-1.6,0.7
								c-0.1,0-0.2,0-0.3,0c-0.1,0-0.2,0-0.3,0c-0.6-0.1-1.1-0.3-1.6-0.7c-0.2-0.2-0.4-0.4-0.5-0.6c0.8,0.3,1.6,0.4,2.4,0.4
								C260.1,249.3,260.9,249.2,261.6,248.9z"></path>
<path class="st11" d="M268.6,262.7c0,0.3,0,0.5-0.2,0.8c0,0,0,0,0,0c-0.8,0.3-1.6,0.4-2.4,0.4c-0.8,0-1.6-0.1-2.4-0.5
								c-0.1-0.1-0.1-0.3-0.1-0.4c0-0.1,0-0.2,0-0.3c0-0.3,0-0.5,0.2-0.8c0.1-0.2,0.3-0.5,0.5-0.6c1.2-0.9,2.7-0.9,3.9,0
								C268.4,261.7,268.6,262.2,268.6,262.7z"></path>
<path class="st14" d="M268.4,263.5c-0.1,0.1-0.2,0.3-0.3,0.4c-0.1,0.1-0.1,0.1-0.2,0.2c-0.5,0.4-1.1,0.6-1.6,0.7
								c-0.1,0-0.2,0-0.3,0c-0.1,0-0.2,0-0.3,0c-0.6-0.1-1.1-0.3-1.6-0.7c-0.2-0.2-0.4-0.4-0.5-0.6c0.8,0.3,1.6,0.5,2.4,0.5
								C266.8,263.9,267.6,263.8,268.4,263.5z"></path>
<path class="st11" d="M251.3,269.5c0,0.3-0.1,0.5-0.2,0.8c0,0,0,0,0,0c-0.8,0.3-1.6,0.4-2.4,0.4s-1.6-0.1-2.4-0.5
								c-0.1-0.1-0.1-0.3-0.1-0.4c0-0.1,0-0.2,0-0.3c0-0.3,0.1-0.5,0.2-0.8c0.1-0.2,0.3-0.5,0.5-0.6c1.2-0.9,2.7-0.9,3.9,0
								C251.1,268.4,251.3,268.9,251.3,269.5z"></path>
<path class="st14" d="M251.1,270.2c-0.1,0.1-0.2,0.3-0.3,0.4c-0.1,0.1-0.1,0.1-0.2,0.2c-0.5,0.4-1.1,0.6-1.6,0.7
								c-0.1,0-0.2,0-0.3,0c-0.1,0-0.2,0-0.3,0c-0.6-0.1-1.1-0.3-1.6-0.7c-0.2-0.2-0.4-0.4-0.5-0.6c0.8,0.3,1.6,0.5,2.4,0.5
								C249.5,270.7,250.3,270.5,251.1,270.2z"></path>
<path class="st1" d="M261.8,269.5c0,0.3,0,0.5-0.2,0.8c0,0,0,0,0,0c-0.8,0.3-1.6,0.4-2.4,0.4c-0.8,0-1.6-0.1-2.4-0.5
								c-0.1-0.1-0.1-0.3-0.1-0.4c0-0.1,0-0.2,0-0.3c0-0.3,0-0.5,0.2-0.8c0.1-0.2,0.3-0.5,0.5-0.6c1.2-0.9,2.7-0.9,3.9,0
								C261.6,268.4,261.8,268.9,261.8,269.5z"></path>
<path class="st15" d="M261.6,270.2c-0.1,0.1-0.2,0.3-0.3,0.4c-0.1,0.1-0.1,0.1-0.2,0.2c-0.5,0.4-1.1,0.6-1.6,0.7
								c-0.1,0-0.2,0-0.3,0s-0.2,0-0.3,0c-0.6-0.1-1.1-0.3-1.6-0.7c-0.2-0.2-0.4-0.4-0.5-0.6c0.8,0.3,1.6,0.5,2.4,0.5
								C260.1,270.7,260.9,270.5,261.6,270.2z"></path>
<path class="st1" d="M264.4,255c0,0.3,0,0.5-0.2,0.8c0,0,0,0,0,0c-0.8,0.3-1.6,0.4-2.4,0.4c-0.8,0-1.6-0.1-2.4-0.4
								c-0.1-0.1-0.1-0.3-0.1-0.4c0-0.1,0-0.2,0-0.3c0-0.3,0-0.5,0.2-0.8c0.1-0.2,0.3-0.4,0.5-0.6c1.2-0.9,2.7-0.9,3.9,0
								C264.2,253.9,264.4,254.5,264.4,255z"></path>
<path class="st15" d="M264.2,255.8c-0.1,0.1-0.2,0.3-0.3,0.4c-0.1,0.1-0.1,0.1-0.2,0.2c-0.5,0.4-1.1,0.6-1.6,0.7
								c-0.1,0-0.2,0-0.3,0c-0.1,0-0.2,0-0.3,0c-0.6-0.1-1.1-0.3-1.6-0.7c-0.2-0.2-0.4-0.4-0.5-0.6c0.8,0.3,1.6,0.4,2.4,0.4
								C262.6,256.2,263.4,256.1,264.2,255.8z"></path>
<path class="st1" d="M254.4,259.5c0,0.3-0.1,0.5-0.2,0.8c0,0,0,0,0,0c-0.8,0.3-1.6,0.4-2.4,0.4s-1.6-0.1-2.4-0.5
								c-0.1-0.1-0.1-0.3-0.1-0.4c0-0.1,0-0.2,0-0.3c0-0.3,0.1-0.5,0.2-0.8c0.1-0.2,0.3-0.5,0.5-0.6c1.2-0.9,2.7-0.9,3.9,0
								C254.2,258.4,254.4,259,254.4,259.5z"></path>
<path class="st15" d="M254.2,260.3c-0.1,0.1-0.2,0.3-0.3,0.4c-0.1,0.1-0.1,0.1-0.2,0.2c-0.5,0.4-1.1,0.6-1.6,0.7
								c-0.1,0-0.2,0-0.3,0c-0.1,0-0.2,0-0.3,0c-0.6-0.1-1.1-0.3-1.6-0.7c-0.2-0.2-0.4-0.4-0.5-0.6c0.8,0.3,1.6,0.5,2.4,0.5
								C252.7,260.7,253.5,260.6,254.2,260.3z"></path>
<path class="st1" d="M239.4,264.2c0,0.3-0.1,0.5-0.2,0.8c0,0,0,0,0,0c-0.8,0.3-1.6,0.4-2.4,0.4s-1.6-0.1-2.4-0.5
								c-0.1-0.1-0.1-0.3-0.1-0.4c0-0.1,0-0.2,0-0.3c0-0.3,0.1-0.5,0.2-0.8c0.1-0.2,0.3-0.5,0.5-0.6c1.2-0.9,2.7-0.9,3.9,0
								C239.1,263.1,239.4,263.6,239.4,264.2z"></path>
<path class="st15" d="M239.2,265c-0.1,0.1-0.2,0.3-0.3,0.4c-0.1,0.1-0.1,0.1-0.2,0.2c-0.5,0.4-1.1,0.6-1.6,0.7
								c-0.1,0-0.2,0-0.3,0c-0.1,0-0.2,0-0.3,0c-0.6-0.1-1.1-0.3-1.6-0.7c-0.2-0.2-0.4-0.4-0.5-0.6c0.8,0.3,1.6,0.5,2.4,0.5
								C237.6,265.4,238.4,265.2,239.2,265z"></path>
</g>
</g>
</g>
<path class="st5" d="M264.5,254c1.3,0.5,10.3,7.8,10.1,18.3l0,0c0,52.8,0,6.4,0,59.2c-1.3,0.7-2.8,1.4-4.5,2.1
					c-2.4,1-4.6,1.7-6.5,2.2v-52.9c0-8-0.9-15.9-2.8-23.7c-0.4-1.7-0.8-3-1-3.6C261.2,255.3,263.7,254.5,264.5,254z"></path>
<g>
<path class="st16" d="M280.3,229v9.9h0c-0.3,6.1-3.2,12.1-8.8,16c-16.4,11.3-38.2,11.3-54.6,0c-5.6-3.9-8.6-9.9-8.8-16H208V229
						H280.3z"></path>
<path class="st17" d="M216.8,211.8L216.8,211.8c16.4-11.3,38.2-11.3,54.6,0l0,0c5.9,4.1,8.9,10.5,8.9,16.9
						c0,6.4-3,12.8-8.9,16.9l0,0c-16.4,11.3-38.2,11.3-54.6,0l0,0c-5.9-4.1-8.9-10.5-8.9-16.9C208,222.2,210.9,215.9,216.8,211.8z"></path>
<path class="st5" d="M210.6,238.7c1.4,2.6,3.5,4.9,6.2,6.8c8.2,5.7,17.8,8.5,27.3,8.5c5,0,9.9-0.8,14.7-2.3v9.4
						c2.3-0.7,4.5-1.6,6.6-2.7V249c0,0,4-2.1,5.9-3.5c5.9-4.1,8.9-10.5,8.9-16.9c0-0.4,0-0.8,0-1.2c-1,5.3-4,10.2-8.9,13.6
						c-8.7,6-18.8,9-28.9,9c-10.1,0-20.2-3-28.9-9C212.4,240.4,211.5,239.6,210.6,238.7z"></path>
</g>
<path class="st18" d="M283.3,298.4c-1.2,17.1-1.2,17.1-3.3,21.6c-1.7,3.8-4.2,6.2-5.5,7.4c-7,6.5-22.6,13.1-40.3,10.3
					c-12-1.9-20.8-7.4-25.9-11.4c1.5,2.5,3.6,4.6,6.2,6.5c8.9,6.1,19.2,9.1,29.6,9.1c10.3,0,20.7-3,29.6-9.1
					c3.9-2.7,5.6-5.4,6.5-6.9c2.6-4.4,3-8.8,3-11.1C283.4,305.7,283.3,307.4,283.3,298.4z"></path>
</g>
<path class="st19" d="M277.4,218.1c-1.5-2.4-3.4-4.6-6-6.3l0,0c-16.4-11.4-38.2-11.4-54.7,0l0,0c-5.9,4.1-8.9,10.5-8.9,16.9
				s2.9,12.8,8.9,16.9l0,0c3.6,2.5,7.5,4.5,11.6,5.9"></path>
</g>
</g>
</g>
<g id="Layer_3">
<g>
<path class="st7" d="M165.1,315.8c-13.9,8.7-28.1,17.4-42.4,26.1c-9.1,5.5-18.1,10.9-27.1,16.3c3.8,4.6,7.8,8.9,13.7,13.9
			c12.3,10.3,24.8,16,33.8,19.3c2.5,1.2,7.3,3.1,13.4,4.2c24.5,4.5,58.5-7.1,63.6-28.4c1.9-8-0.8-15-2.3-18.6
			C206.6,320.8,168.4,316.1,165.1,315.8z"></path>
<g>
<g>
<path class="st16" d="M209.5,274.2H129v84.1l0,0c0.3,6.8,3.6,13.5,9.9,17.8c18.3,12.6,42.5,12.6,60.8,0c6.3-4.3,9.6-11,9.9-17.8
					l0,0L209.5,274.2L209.5,274.2z"></path>
<g>
<g>
<defs>
<path id="SVGID_1_" d="M209.5,274.2H129v84.1l0,0c0.3,6.8,3.6,13.5,9.9,17.8c18.3,12.6,42.5,12.6,60.8,0
								c6.3-4.3,9.6-11,9.9-17.8l0,0L209.5,274.2L209.5,274.2z"></path>
</defs>
<clipPath id="SVGID_2_">
<use xlink:href="#SVGID_1_" style="overflow:visible;"></use>
</clipPath>
<path class="st20" d="M199.6,316.3c-18.3,12.6-42.5,12.6-60.8,0c-6.2-4.3-9.5-10.8-9.9-17.5v37.5l0,0
							c0.3,6.8,3.6,13.5,9.9,17.8c18.3,12.6,42.5,12.6,60.8,0c6.3-4.3,9.6-11,9.9-17.8l0,0v-13.1l0-25
							C209.3,305.1,206,311.9,199.6,316.3z"></path>
</g>
</g>
<path class="st21" d="M169.2,368.4L169.2,368.4c-9.6,0-17.4-7.8-17.4-17.4v-16.3c0-9.6,7.8-17.4,17.4-17.4l0,0
					c9.6,0,17.4,7.8,17.4,17.4V351C186.6,360.6,178.8,368.4,169.2,368.4z"></path>
<g>
<path class="st3" d="M173.5,351.7c-7.2,0-13.1-5.9-13.1-13.1c0-2.5,2-4.5,4.5-4.5s4.5,2,4.5,4.5c0,2.2,1.8,4.1,4.1,4.1
						c2.5,0,4.5,2,4.5,4.5S176,351.7,173.5,351.7z"></path>
</g>
<path class="st17" d="M138.9,256.8L138.9,256.8c18.3-12.6,42.5-12.6,60.8,0l0,0c6.6,4.5,9.9,11.6,9.9,18.8s-3.3,14.2-9.9,18.8
					l0,0c-18.3,12.6-42.5,12.6-60.8,0l0,0c-6.6-4.5-9.9-11.6-9.9-18.8S132.3,261.3,138.9,256.8z"></path>
<g>
<path class="st16" d="M143.2,259.5L143.2,259.5c15.7-10.8,36.4-10.8,52.1,0l0,0c5.6,3.9,8.4,10,8.4,16.1s-2.8,12.2-8.4,16.1
						l0,0c-15.7,10.8-36.4,10.8-52.1,0l0,0c-5.6-3.9-8.4-10-8.4-16.1S137.6,263.3,143.2,259.5z"></path>
<path class="st17" d="M146.4,261.4L146.4,261.4c13.7-9.5,31.9-9.5,45.6,0l0,0c4.9,3.4,7.4,8.8,7.4,14.1s-2.5,10.7-7.4,14.1l0,0
						c-13.7,9.5-31.9,9.5-45.6,0l0,0c-4.9-3.4-7.4-8.8-7.4-14.1S141.5,264.8,146.4,261.4z"></path>
<path class="st16" d="M150.9,264.2L150.9,264.2c11.1-7.6,25.7-7.6,36.8,0l0,0c4,2.7,6,7,6,11.4s-2,8.6-6,11.4l0,0
						c-11.1,7.6-25.7,7.6-36.8,0l0,0c-4-2.7-6-7-6-11.4S146.9,266.9,150.9,264.2z"></path>
<path class="st17" d="M153.1,265.6L153.1,265.6c9.7-6.7,22.5-6.7,32.3,0l0,0c3.5,2.4,5.2,6.2,5.2,10s-1.7,7.5-5.2,10l0,0
						c-9.7,6.7-22.5,6.7-32.3,0l0,0c-3.5-2.4-5.2-6.2-5.2-10S149.6,268,153.1,265.6z"></path>
<path class="st16" d="M157.1,268L157.1,268c7.3-5,17-5,24.3,0l0,0c2.6,1.8,3.9,4.7,3.9,7.5s-1.3,5.7-3.9,7.5l0,0
						c-7.3,5-17,5-24.3,0l0,0c-2.6-1.8-3.9-4.7-3.9-7.5S154.5,269.8,157.1,268z"></path>
<path class="st17" d="M158.6,269L158.6,269c6.4-4.4,14.9-4.4,21.3,0l0,0c2.3,1.6,3.5,4.1,3.5,6.6s-1.1,5-3.5,6.6l0,0
						c-6.4,4.4-14.9,4.4-21.3,0l0,0c-2.3-1.6-3.5-4.1-3.5-6.6S156.3,270.5,158.6,269z"></path>
</g>
<path class="st5" d="M131.9,286.8c1.6,2.9,3.9,5.5,6.9,7.5c9.1,6.3,19.8,9.5,30.4,9.5c5.5,0,11.1-0.9,16.4-2.6l0.1,81.9
					c2.5-0.8,4.9-1.8,7.4-3l-0.1-81.8c-0.1,0,4.3-2.2,6.6-3.9c2.8-2.1,3.8-3,5-4.6c2-2.6,3.1-5.1,3.3-5.8c0.6-1.4,0.9-2.7,1.2-4
					c0.4-1.9,0.4-3.4,0.4-4.3c0-0.5,0-1,0-1.3c-0.3,2.9-1.3,7.6-4.4,12.3c-5.4,8.2-13.7,11.1-18.9,12.9c-7.6,2.6-13.8,2.6-17.2,2.6
					c-4.9,0-17.5-0.2-29.4-8.5C136.1,291,133.5,288.5,131.9,286.8z"></path>
</g>
<path class="st19" d="M206.1,263.5c-1.6-2.7-3.8-5.1-6.6-7l0,0c-18.4-12.7-42.6-12.7-61,0l0,0c-6.6,4.5-9.9,11.7-9.9,18.8
				c0,7.1,3.3,14.3,9.9,18.8l0,0c4.1,2.8,8.4,5,12.9,6.5"></path>
</g>
</g>
</g>
<g id="Layer_18">
<g>
<path class="st7" d="M96.4,357.7c-19.9,12.1-39.8,24.3-59.7,36.4c-1.6,4.9-3,12,0.2,18.3c6.1,12,24.5,12.7,41.2,13.3
			c19,0.7,42.1,1.5,55.9-14.7c5.7-6.7,8.1-14.2,9.1-19.6c-0.9-2.4-1.9-4.6-3-6.6C129.1,365.1,105.6,359.4,96.4,357.7z"></path>
<g>
<path class="st12" d="M50.3,370.8v21.9h0.1c0.5,6.5,3.7,12.9,9.7,17c18.3,12.6,42.5,12.6,60.8,0c6-4.2,9.4-10.5,9.9-17l0,0v-0.8
				v-12.1v-9L50.3,370.8L50.3,370.8z"></path>
<path class="st1" d="M120.9,393.9c-18.3,12.6-42.5,12.6-60.8,0c-6.2-4.3-9.5-10.8-9.9-17.5V390l0,0c0.3,6.8,3.6,13.5,9.8,17.8
				c18.3,12.6,42.5,12.6,60.8,0c6.3-4.3,9.6-11,9.9-17.8l0,0l0-14.1C130.5,382.7,127.2,389.5,120.9,393.9z"></path>
<g>
<path class="st11" d="M60.1,353.3L60.1,353.3c18.3-12.6,42.5-12.6,60.8,0l0,0c6.6,4.5,9.9,11.6,9.9,18.8s-3.3,14.2-9.8,18.8l0,0
					c-18.3,12.6-42.5,12.6-60.8,0l0,0c-6.6-4.5-9.9-11.6-9.9-18.8S53.5,357.8,60.1,353.3z"></path>
<path class="st12" d="M63.8,355.6L63.8,355.6c16-11.1,37.3-11.1,53.3,0l0,0c5.8,4,8.6,10.2,8.6,16.5s-2.9,12.5-8.6,16.5l0,0
					c-16,11.1-37.3,11.1-53.3,0l0,0c-5.8-4-8.6-10.2-8.6-16.5S58.1,359.6,63.8,355.6z"></path>
<path class="st11" d="M69,358.8L69,358.8c12.9-8.9,30-8.9,42.9,0l0,0c4.6,3.2,7,8.2,7,13.3s-2.3,10.1-7,13.3l0,0
					c-12.9,8.9-30,8.9-42.9,0l0,0c-4.6-3.2-7-8.2-7-13.3S64.4,362,69,358.8z"></path>
<path class="st12" d="M71.7,360.5L71.7,360.5c11.3-7.8,26.3-7.8,37.7,0l0,0c4.1,2.8,6.1,7.2,6.1,11.6s-2,8.8-6.1,11.6l0,0
					c-11.3,7.8-26.3,7.8-37.7,0l0,0c-4.1-2.8-6.1-7.2-6.1-11.6S67.6,363.3,71.7,360.5z"></path>
<g>
<path class="st11" d="M76.3,363.3L76.3,363.3c8.6-5.9,19.8-5.9,28.4,0l0,0c3.1,2.1,4.6,5.4,4.6,8.8s-1.5,6.6-4.6,8.8l0,0
						c-8.6,5.9-19.8,5.9-28.4,0l0,0c-3.1-2.1-4.6-5.4-4.6-8.8S73.2,365.4,76.3,363.3z"></path>
<path class="st12" d="M78.1,364.4L78.1,364.4c7.5-5.2,17.4-5.2,24.9,0l0,0c2.7,1.9,4,4.8,4,7.7s-1.3,5.8-4,7.7l0,0
						c-7.5,5.2-17.4,5.2-24.9,0l0,0c-2.7-1.9-4-4.8-4-7.7S75.4,366.2,78.1,364.4z"></path>
</g>
</g>
<g>
<g>
<path class="st8" d="M77.2,409.8L77.2,409.8L77.2,409.8c3.8-3.8,19-3.8,22.7,0l0,0l0,0C96.2,413.5,81,413.5,77.2,409.8z"></path>
<polygon class="st8" points="103.8,413.6 99.9,409.8 103.8,406 					"></polygon>
</g>
<circle class="st16" cx="81.1" cy="409.8" r="0.6"></circle>
</g>
<path class="st5" d="M53.2,383.3c1.6,2.9,3.9,5.5,6.9,7.5c9.2,6.3,19.8,9.5,30.4,9.5c5.5,0,11.1-0.9,16.4-2.6l0.1,18.9
				c2.5-0.8,5-1.8,7.4-3l-0.1-18.9c-0.1,0,4.3-2.2,6.6-3.9c2.8-2.1,3.8-3,5-4.6c2-2.6,3.1-5.1,3.3-5.8c0.6-1.4,0.9-2.7,1.2-4
				c0.4-1.9,0.4-3.4,0.4-4.3c0-0.5,0-1,0-1.3c-0.3,2.9-1.3,7.6-4.3,12.3c-5.4,8.2-13.7,11.1-18.9,12.9c-7.6,2.6-13.8,2.6-17.2,2.6
				c-4.9,0-17.5-0.2-29.5-8.5C57.3,387.5,54.8,385,53.2,383.3z"></path>
</g>
<g>
<path class="st13" d="M59.7,348.3v21.9h0.1c0.5,6.5,3.7,12.9,9.7,17c18.3,12.6,42.5,12.6,60.8,0c6-4.2,9.4-10.5,9.9-17l0,0v-0.8
				v-12.1v-9L59.7,348.3L59.7,348.3z"></path>
<path class="st1" d="M130.3,371.4c-18.3,12.6-42.5,12.6-60.8,0c-6.2-4.3-9.5-10.8-9.8-17.5v13.5l0,0c0.3,6.8,3.6,13.5,9.8,17.8
				c18.3,12.6,42.5,12.6,60.8,0c6.3-4.3,9.6-11,9.9-17.8l0,0l0-14.1C140,360.2,136.7,367,130.3,371.4z"></path>
<path class="st22" d="M69.6,330.8L69.6,330.8c18.3-12.6,42.5-12.6,60.8,0l0,0c6.6,4.5,9.9,11.6,9.9,18.8s-3.3,14.2-9.9,18.8l0,0
				c-18.3,12.6-42.5,12.6-60.8,0l0,0c-6.6-4.5-9.8-11.6-9.8-18.8S63,335.4,69.6,330.8z"></path>
<path class="st13" d="M73.3,333.1L73.3,333.1c16-11.1,37.3-11.1,53.3,0l0,0c5.8,4,8.6,10.2,8.6,16.5s-2.9,12.5-8.6,16.5l0,0
				c-16,11.1-37.3,11.1-53.3,0l0,0c-5.8-4-8.6-10.2-8.6-16.5S67.5,337.1,73.3,333.1z"></path>
<path class="st22" d="M78.5,336.3L78.5,336.3c12.9-8.9,30-8.9,42.9,0l0,0c4.6,3.2,7,8.2,7,13.3s-2.3,10.1-7,13.3l0,0
				c-12.9,8.9-30,8.9-43,0l0,0c-4.6-3.2-7-8.2-7-13.3S73.8,339.5,78.5,336.3z"></path>
<path class="st13" d="M81.1,338L81.1,338c11.3-7.8,26.3-7.8,37.7,0l0,0c4.1,2.8,6.1,7.2,6.1,11.6s-2,8.8-6.1,11.6l0,0
				c-11.3,7.8-26.3,7.8-37.7,0l0,0C77,358.4,75,354,75,349.6S77.1,340.8,81.1,338z"></path>
<path class="st22" d="M85.8,340.8L85.8,340.8c8.6-5.9,19.8-5.9,28.4,0l0,0c3.1,2.1,4.6,5.4,4.6,8.8c0,3.3-1.5,6.6-4.6,8.8l0,0
				c-8.6,5.9-19.8,5.9-28.4,0l0,0c-3.1-2.1-4.6-5.4-4.6-8.8S82.7,342.9,85.8,340.8z"></path>
<path class="st13" d="M87.5,341.9L87.5,341.9c7.5-5.2,17.4-5.2,24.9,0l0,0c2.7,1.9,4,4.8,4,7.7s-1.3,5.8-4,7.7l0,0
				c-7.5,5.2-17.4,5.2-24.9,0l0,0c-2.7-1.9-4-4.8-4-7.7S84.8,343.8,87.5,341.9z"></path>
<path class="st12" d="M86.7,387.3L86.7,387.3L86.7,387.3c3.8-3.8,19-3.8,22.7,0l0,0l0,0C105.6,391.1,90.4,391.1,86.7,387.3z"></path>
<polygon class="st12" points="113.2,391.1 109.4,387.3 113.2,383.5 			"></polygon>
<circle class="st16" cx="90.5" cy="387.3" r="0.6"></circle>
<path class="st5" d="M62.6,360.8c1.6,2.9,3.9,5.5,6.9,7.5c9.2,6.3,19.8,9.5,30.4,9.5c5.5,0,11.1-0.9,16.4-2.6l0.1,18.9
				c2.5-0.8,5-1.8,7.4-3l-0.1-18.9c-0.1,0,4.3-2.2,6.6-3.9c2.8-2.1,3.8-3,5-4.6c2-2.6,3.1-5.1,3.3-5.8c0.6-1.4,0.9-2.7,1.2-4
				c0.4-1.9,0.4-3.4,0.4-4.3c0-0.5,0-1,0-1.3c-0.3,2.9-1.3,7.6-4.4,12.3c-5.4,8.2-13.7,11.1-18.9,12.9c-7.6,2.6-13.8,2.6-17.2,2.6
				c-4.9,0-17.5-0.2-29.4-8.5C66.8,365.1,64.2,362.5,62.6,360.8z"></path>
<path class="st19" d="M136.8,337.9c-1.6-2.7-3.8-5.1-6.6-7l0,0c-18.3-12.6-42.4-12.6-60.7,0l0,0c-6.6,4.5-9.8,11.6-9.8,18.7
				s3.3,14.2,9.8,18.7l0,0c4,2.8,8.4,5,12.8,6.5"></path>
</g>
</g>
</g>
<g id="Layer_5">
<g>
<path class="st7" d="M394.4,295.5c-8.2-4.9-16.4-9.8-24.6-14.8c-38.6-4.1-66.4,7.1-69.5,21.7c-1.8,8.5,4.7,18.6,9.9,23.8
			c9.5,9.6,21.8,10.5,31.2,11.1c11.7,0.8,21.5-1.5,28-3.7c4.1-2.4,12.7-8,18.9-18.8C392.6,307.2,393.9,299.9,394.4,295.5z"></path>
<g>
<g>
<path class="st12" d="M308.9,256.6c0-4.5,3.6-8.1,8.1-8.1h57.2c4.5,0,8.1,3.6,8.1,8.1v48.1h0c0,6.4-3,12.8-9,16.9l0,0
					c-16.7,11.5-38.7,11.5-55.3,0l0,0c-5.9-4.1-8.9-10.5-9-16.9h0L308.9,256.6L308.9,256.6z"></path>
<path class="st11" d="M382.2,275.6c-1.1,16-1.1,30-3,34.2c-1.6,3.6-4,5.8-5.1,6.9c-6.5,6-21.1,12.3-37.6,9.7
					c-11.2-1.8-19.4-6.9-24.2-10.6c1.4,2.3,3.4,4.3,5.8,6c8.3,5.7,18,8.5,27.6,8.5c9.7,0,19.3-2.8,27.7-8.5c3.7-2.5,5.3-5,6.1-6.5
					c2.5-4.1,2.8-8.2,2.9-10.4C382.3,296.5,382.3,284,382.2,275.6z"></path>
<g>
<g>
<defs>
<path id="SVGID_3_" d="M308.9,256.6c0-4.5,3.6-8.1,8.1-8.1h57.2c4.5,0,8.1,3.6,8.1,8.1v48.1h0c0,6.4-3,12.8-9,16.9l0,0
								c-16.7,11.5-38.7,11.5-55.3,0l0,0c-5.9-4.1-8.9-10.5-9-16.9h0L308.9,256.6L308.9,256.6z"></path>
</defs>
<clipPath id="SVGID_4_">
<use xlink:href="#SVGID_3_" style="overflow:visible;"></use>
</clipPath>
<path class="st23" d="M373.5,275.6c-16.8,11.6-39,11.6-55.8,0c-5.7-3.9-8.7-9.9-9-16V294l0,0c0.3,6.2,3.3,12.4,9,16.3
							c16.8,11.6,39,11.6,55.8,0c5.8-4,8.8-10.1,9-16.3l0,0l0-35C382.3,265.3,379.3,271.6,373.5,275.6z"></path>
</g>
</g>
<g>
<path class="st21" d="M343.2,313.3l-17.1-11c-1.5-1-1.5-3.1,0-4.1l17.1-11c1.5-1,3.4-1,4.9,0l17.1,11c1.5,1,1.5,3.1,0,4.1
						l-17.1,11C346.6,314.3,344.7,314.3,343.2,313.3z"></path>
</g>
<g class="st24">
<path class="st3" d="M363.6,265.8c0.9,0.4,7.3,3.5,7.1,11.6v23c0,40.6,0-21.7,0,18.9c-0.9,0.6-2,1.5-3.2,2
						c-1.7,0.8-3.2,1.7-4.5,2v-14.8c0-6.1,0.5-23.1,0-29.2c-0.7-7.9-2.5-11.9-2.7-12.3C361.3,266.8,363,266.2,363.6,265.8z"></path>
</g>
<g>
<path class="st16" d="M381.3,235.6v15.9h0c-0.3,6-3.1,11.9-8.7,15.8c-16.2,11.2-37.6,11.2-53.8,0c-5.6-3.8-8.4-9.8-8.7-15.8h0
						v-15.9L381.3,235.6L381.3,235.6z"></path>
<path class="st17" d="M318.7,220.2L318.7,220.2c16.2-11.2,37.6-11.2,53.8,0l0,0c5.8,4,8.7,10.3,8.7,16.6s-2.9,12.6-8.7,16.6
						l0,0c-16.2,11.2-37.6,11.2-53.8,0l0,0c-5.8-4-8.7-10.3-8.7-16.6S312.9,224.2,318.7,220.2z"></path>
</g>
</g>
<path class="st19" d="M312.9,226.4c1.4-2.4,3.4-4.5,5.9-6.2l0,0c16.2-11.2,37.6-11.2,53.8,0l0,0c5.8,4,8.7,10.3,8.7,16.6
				s-2.9,12.6-8.7,16.6l0,0c-3.6,2.5-7.4,4.4-11.4,5.8"></path>
</g>
</g>
</g>
<g id="Layer_6">
<g>
<path class="st7" d="M450.8,330c-10-6.1-20-12.2-30-18.4c-9.1,0.5-24.3,2.7-39.4,12.4c-4.8,3.1-8.8,6.5-12.1,9.7
			c-9.2,10.4-8.7,18-8.4,20.5c2.1,15.1,25.7,29,59.6,27.6c4.7-0.8,11-2.7,16.8-7.2C449.4,365,454.3,347.8,450.8,330z"></path>
<g>
<g>
<path class="st13" d="M374.8,285.3c0-5,4.1-9.1,9.1-9.1h44.9c5,0,9.1,4.1,9.1,9.1v68.5h0c0,5.5-2.6,11-7.7,14.6l0,0
					c-14.3,9.9-33.3,9.9-47.6,0l0,0c-5.1-3.5-7.7-9-7.7-14.6h0V285.3z"></path>
<g>
<path class="st16" d="M395.8,312.5c-7.5,0-13.6-6.1-13.6-13.6h9.8c0,2.1,1.7,3.8,3.8,3.8s3.8-1.7,3.8-3.8h9.8
						C409.4,306.4,403.3,312.5,395.8,312.5z"></path>
<path class="st12" d="M404.9,326.8c-3.5,0-7-1.3-9.6-4l6.9-6.9c1.5,1.5,3.9,1.5,5.4,0s1.5-3.9,0-5.4l6.9-6.9
						c5.3,5.3,5.3,13.9,0,19.2C411.9,325.5,408.4,326.8,404.9,326.8z"></path>
<path class="st12" d="M390.1,353.6c0-3.5,1.3-7,4-9.6l6.9,6.9c-1.5,1.5-1.5,3.9,0,5.4s3.9,1.5,5.4,0l6.9,6.9
						c-5.3,5.3-13.9,5.3-19.2,0C391.4,360.6,390.1,357.1,390.1,353.6z"></path>
<path class="st16" d="M383.3,345.5v-9.8c2.1,0,3.8-1.7,3.8-3.8s-1.7-3.8-3.8-3.8v-9.8c7.5,0,13.6,6.1,13.6,13.6
						S390.8,345.5,383.3,345.5z"></path>
<path class="st16" d="M422,359.4l-6.9-6.9c0.7-0.7,1.1-1.7,1.1-2.7s-0.4-2-1.1-2.7c-0.7-0.7-1.7-1.1-2.7-1.1s-2,0.4-2.7,1.1
						l-6.9-6.9c2.6-2.6,6-4,9.6-4c3.6,0,7,1.4,9.6,4c2.6,2.6,4,6,4,9.6C425.9,353.5,424.5,356.9,422,359.4z"></path>
<path class="st16" d="M432.5,338.1c-7.5,0-13.6-6.1-13.6-13.6s6.1-13.6,13.6-13.6v9.8c-2.1,0-3.8,1.7-3.8,3.8s1.7,3.8,3.8,3.8
						V338.1z"></path>
</g>
<path class="st5" d="M422.8,287.8c1,0.4,8.3,6.2,8.1,14.7l0,0c0,42.5,0,22.3,0,64.8c-1.1,0.6-2.3,1.1-3.6,1.7
					c-1.9,0.8-3.7,1.4-5.2,1.8V311c0-6.4-0.7-12.8-2.3-19c-0.3-1.4-0.6-2.4-0.8-2.9C420.1,288.8,422.1,288.2,422.8,287.8z"></path>
<path class="st18" d="M437.9,340.7c-1,13.8-1,13.8-2.6,17.4c-1.4,3.1-3.4,5-4.4,5.9c-5.6,5.2-18.2,10.5-32.4,8.3
					c-9.6-1.5-16.7-6-20.8-9.2c1.2,2,2.9,3.7,5,5.2c7.2,4.9,15.5,7.3,23.8,7.3s16.6-2.4,23.8-7.3c3.2-2.2,4.5-4.3,5.3-5.6
					c2.1-3.6,2.4-7.1,2.5-9C437.9,346.6,437.9,348,437.9,340.7z"></path>
<path class="st16" d="M435.5,267.7v8h0c-0.2,4.9-2.5,9.7-7.1,12.9c-13.2,9.1-30.7,9.1-43.9,0c-4.5-3.1-6.9-8-7.1-12.9h0v-8
					H435.5z"></path>
<path class="st17" d="M384.4,253.8L384.4,253.8c13.2-9.1,30.7-9.1,43.9,0l0,0c4.7,3.3,7.1,8.4,7.1,13.5c0,5.1-2.4,10.3-7.1,13.5
					l0,0c-13.2,9.1-30.7,9.1-43.9,0l0,0c-4.7-3.3-7.1-8.4-7.1-13.5C377.3,262.3,379.7,257.1,384.4,253.8z"></path>
<path class="st5" d="M379.4,275.5c1.2,2.1,2.8,4,5,5.4c6.6,4.6,14.3,6.8,22,6.8c4,0,8-0.6,11.9-1.9v7.5c1.8-0.6,3.6-1.3,5.3-2.2
					v-7.5c0,0,3.2-1.7,4.8-2.8c4.8-3.3,7.1-8.4,7.1-13.5c0-0.3,0-0.6,0-0.9c-0.8,4.2-3.2,8.2-7.2,10.9c-7,4.8-15.1,7.2-23.3,7.2
					c-8.1,0-16.3-2.4-23.3-7.2C380.9,276.8,380.1,276.2,379.4,275.5z"></path>
</g>
<path class="st19" d="M379.4,259.1c1.2-2,2.8-3.7,4.9-5.1l0,0c13.4-9.3,31.2-9.3,44.6,0l0,0c4.8,3.3,7.2,8.5,7.2,13.8
				c0,5.2-2.4,10.4-7.2,13.8l0,0c-3,2-6.1,3.6-9.4,4.8"></path>
</g>
</g>
</g>
<g id="Layer_7">
<g>
<path class="st7" d="M420.6,381.8c0.9,7,5.8,11.7,7,12.9c19.6,18.4,73.7,5.5,78.8-16.8c0.9-3.9,0.5-9.1-3.5-16.1
			c-7.6-4.6-15.2-9.3-22.7-13.9c-4.4-1.1-26.1-6.2-43.6,6.7C434,356.5,418.8,367.7,420.6,381.8z"></path>
<g>
<path class="st25" d="M425.3,355.6c0-9.1,7.4-16.5,16.5-16.5h40.3c9.1,0,16.5,7.4,16.5,16.5v16.6h0c0,6.4-3,12.8-9,16.9l0,0
				c-16.7,11.5-38.7,11.5-55.3,0l0,0c-5.9-4.1-8.9-10.5-9-16.9h0L425.3,355.6L425.3,355.6z"></path>
<path class="st5" d="M489.8,369.3c-0.4,2.8-0.7,5.8-2.8,9.3c-1.4,2.4-2.6,4.5-5,5.4c-4.1,1.6-7.5-1.9-14.9-3.1
				c-1.8-0.3-3.5-0.4-5.1-0.4c-1.5,0-3.2,0.1-5.1,0.4c-7.4,1.2-10.8,4.8-14.9,3.1c-2.4-0.9-3.6-3-5-5.4c-2.1-3.5-2.4-6.5-2.8-9.3
				c-0.5-2.8-1.3-6.6-2.9-11c-0.2-0.6-1.2-0.5-1.1,0.2c0,1.1,0.1,2.4,0.1,3.8c0.5,12.2,1.5,14.9,2.2,16.4c2,4.2,5.1,6.4,6.9,7.7
				c8.7,6.3,16.7,6.9,20.5,6.8c1.5,0,3,0,4.5,0c3.7,0.1,11.5-0.6,20.1-6.8c1.8-1.3,4.9-3.6,6.9-7.7c0.8-1.6,1.7-4.2,2.2-16.4
				c0.1-1.4,0.1-2.7,0.1-3.8c0-0.7-0.9-0.8-1.1-0.2C491,362.7,490.2,366.4,489.8,369.3z"></path>
<g>
<g>
<path class="st26" d="M467.4,381.6c-3.4,0-6.1-2.7-6.1-6.1c0-1.6,0.7-3.1,1.7-4.2c1.1-1.1,2.6-1.9,4.4-1.9
						c3.4,0,6.1,2.7,6.1,6.1c0,2.5-1.5,4.7-3.7,5.6C469.1,381.5,468.3,381.6,467.4,381.6z"></path>
<path class="st21" d="M469.8,381.2c-3.9-0.5-7-3.8-7-7.9c0-0.7,0.1-1.3,0.3-2c1.1-1.1,2.6-1.9,4.4-1.9c3.4,0,6.1,2.7,6.1,6.1
						C473.5,378.1,472,380.3,469.8,381.2z"></path>
</g>
<g>
<path class="st27" d="M464.3,365.6c-3.4,0-6.1-2.7-6.1-6.1c0-1.6,0.7-3.1,1.7-4.2c1.1-1.1,2.6-1.9,4.4-1.9
						c3.4,0,6.1,2.7,6.1,6.1c0,2.5-1.5,4.7-3.7,5.6C466,365.4,465.1,365.6,464.3,365.6z"></path>
<path class="st1" d="M466.7,365.1c-3.9-0.5-7-3.8-7-7.9c0-0.7,0.1-1.3,0.3-2c1.1-1.1,2.6-1.9,4.4-1.9c3.4,0,6.1,2.7,6.1,6.1
						C470.4,362,468.9,364.2,466.7,365.1z"></path>
</g>
<g>
<path class="st8" d="M452.1,375.2c-3.4,0-6.1-2.7-6.1-6.1c0-1.6,0.7-3.1,1.7-4.2c1.1-1.1,2.6-1.9,4.4-1.9
						c3.4,0,6.1,2.7,6.1,6.1c0,2.5-1.5,4.7-3.7,5.6C453.8,375,453,375.2,452.1,375.2z"></path>
<path class="st9" d="M454.5,374.8c-3.9-0.5-7-3.8-7-7.9c0-0.7,0.1-1.3,0.3-2c1.1-1.1,2.6-1.9,4.4-1.9c3.4,0,6.1,2.7,6.1,6.1
						C458.2,371.7,456.7,373.8,454.5,374.8z"></path>
</g>
<g>
<path class="st28" d="M446.1,365.3c-3.4,0-6.1-2.7-6.1-6.1c0-1.6,0.7-3.1,1.7-4.2c1.1-1.1,2.6-1.9,4.4-1.9
						c3.4,0,6.1,2.7,6.1,6.1c0,2.5-1.5,4.7-3.7,5.6C447.7,365.1,446.9,365.3,446.1,365.3z"></path>
<path class="st22" d="M448.4,364.8c-3.9-0.5-7-3.8-7-7.9c0-0.7,0.1-1.3,0.3-2c1.1-1.1,2.6-1.9,4.4-1.9c3.4,0,6.1,2.7,6.1,6.1
						C452.1,361.7,450.6,363.9,448.4,364.8z"></path>
</g>
<g>
<path class="st26" d="M473.5,371.7c-3.4,0-6.1-2.7-6.1-6.1c0-1.6,0.7-3.1,1.7-4.2c1.1-1.1,2.6-1.9,4.4-1.9
						c3.4,0,6.1,2.7,6.1,6.1c0,2.5-1.5,4.7-3.7,5.6C475.1,371.5,474.4,371.7,473.5,371.7z"></path>
<path class="st21" d="M475.9,371.2c-3.9-0.5-7-3.8-7-7.9c0-0.7,0.1-1.3,0.2-2c1.1-1.1,2.6-1.9,4.4-1.9c3.4,0,6.1,2.7,6.1,6.1
						C479.6,368.1,478.1,370.3,475.9,371.2z"></path>
</g>
<g>
<path class="st27" d="M476.5,380.8c-3.4,0-6.1-2.7-6.1-6.1c0-1.6,0.7-3.1,1.7-4.2c1.1-1.1,2.6-1.9,4.4-1.9
						c3.4,0,6.1,2.7,6.1,6.1c0,2.5-1.5,4.7-3.7,5.6C478.1,380.7,477.3,380.8,476.5,380.8z"></path>
<path class="st1" d="M478.9,380.4c-3.9-0.5-7-3.8-7-7.9c0-0.7,0.1-1.3,0.2-2c1.1-1.1,2.6-1.9,4.4-1.9c3.4,0,6.1,2.7,6.1,6.1
						C482.6,377.3,481,379.4,478.9,380.4z"></path>
</g>
<g>
<path class="st8" d="M482.6,371.7c-3.4,0-6.1-2.7-6.1-6.1c0-1.6,0.7-3.1,1.7-4.2c1.1-1.1,2.6-1.9,4.4-1.9
						c3.4,0,6.1,2.7,6.1,6.1c0,2.5-1.5,4.7-3.7,5.6C484.2,371.5,483.4,371.7,482.6,371.7z"></path>
<path class="st9" d="M484.9,371.2c-3.9-0.5-7-3.8-7-7.9c0-0.7,0.1-1.3,0.2-2c1.1-1.1,2.6-1.9,4.4-1.9c3.4,0,6.1,2.7,6.1,6.1
						C488.7,368.1,487.1,370.3,484.9,371.2z"></path>
</g>
<g>
<path class="st28" d="M473.5,362.2c-3.4,0-6.1-2.7-6.1-6.1c0-1.6,0.7-3.1,1.7-4.2c1.1-1.1,2.6-1.9,4.4-1.9
						c3.4,0,6.1,2.7,6.1,6.1c0,2.5-1.5,4.7-3.7,5.6C475.1,362.1,474.4,362.2,473.5,362.2z"></path>
<path class="st22" d="M475.9,361.8c-3.9-0.5-7-3.8-7-7.9c0-0.7,0.1-1.3,0.2-2c1.1-1.1,2.6-1.9,4.4-1.9c3.4,0,6.1,2.7,6.1,6.1
						C479.6,358.7,478.1,360.8,475.9,361.8z"></path>
</g>
<g>
<path class="st8" d="M463.3,374.8c-3.4,0-6.1-2.7-6.1-6.1c0-1.6,0.7-3.1,1.7-4.2c1.1-1.1,2.6-1.9,4.4-1.9
						c3.4,0,6.1,2.7,6.1,6.1c0,2.5-1.5,4.7-3.7,5.6C464.9,374.6,464.1,374.8,463.3,374.8z"></path>
<path class="st9" d="M465.7,374.3c-3.9-0.5-7-3.8-7-7.9c0-0.7,0.1-1.3,0.3-2c1.1-1.1,2.6-1.9,4.4-1.9c3.4,0,6.1,2.7,6.1,6.1
						C469.4,371.2,467.9,373.4,465.7,374.3z"></path>
</g>
<g>
<path class="st28" d="M485.7,380.4c-3.4,0-6.1-2.7-6.1-6.1c0-1.6,0.7-3.1,1.7-4.2c1.1-1.1,2.6-1.9,4.4-1.9
						c3.4,0,6.1,2.7,6.1,6.1c0,2.5-1.5,4.7-3.7,5.6C487.3,380.2,486.5,380.4,485.7,380.4z"></path>
<path class="st22" d="M488,379.9c-3.9-0.5-7-3.8-7-7.9c0-0.7,0.1-1.3,0.2-2c1.1-1.1,2.6-1.9,4.4-1.9c3.4,0,6.1,2.7,6.1,6.1
						C491.8,376.8,490.2,379,488,379.9z"></path>
</g>
<g>
<path class="st27" d="M455.1,367.8c-3.4,0-6.1-2.7-6.1-6.1c0-1.6,0.7-3.1,1.7-4.2c1.1-1.1,2.6-1.9,4.4-1.9
						c3.4,0,6.1,2.7,6.1,6.1c0,2.5-1.5,4.7-3.7,5.6C456.8,367.7,456,367.8,455.1,367.8z"></path>
<path class="st1" d="M457.5,367.4c-3.9-0.5-7-3.8-7-7.9c0-0.7,0.1-1.3,0.3-2c1.1-1.1,2.6-1.9,4.4-1.9c3.4,0,6.1,2.7,6.1,6.1
						C461.2,364.3,459.7,366.4,457.5,367.4z"></path>
</g>
<g>
<path class="st26" d="M458.2,381.3c-3.4,0-6.1-2.7-6.1-6.1c0-1.6,0.7-3.1,1.7-4.2c1.1-1.1,2.6-1.9,4.4-1.9
						c3.4,0,6.1,2.7,6.1,6.1c0,2.5-1.5,4.7-3.7,5.6C459.9,381.1,459.1,381.3,458.2,381.3z"></path>
<path class="st21" d="M460.6,380.8c-3.9-0.5-7-3.8-7-7.9c0-0.7,0.1-1.3,0.3-2c1.1-1.1,2.6-1.9,4.4-1.9c3.4,0,6.1,2.7,6.1,6.1
						C464.3,377.8,462.8,379.9,460.6,380.8z"></path>
</g>
<g>
<path class="st28" d="M443,373.9c-3.4,0-6.1-2.7-6.1-6.1c0-1.6,0.7-3.1,1.7-4.2c1.1-1.1,2.6-1.9,4.4-1.9c3.4,0,6.1,2.7,6.1,6.1
						c0,2.5-1.5,4.7-3.7,5.6C444.6,373.8,443.8,373.9,443,373.9z"></path>
<path class="st22" d="M445.3,373.4c-3.9-0.5-7-3.8-7-7.9c0-0.7,0.1-1.3,0.3-2c1.1-1.1,2.6-1.9,4.4-1.9c3.4,0,6.1,2.7,6.1,6.1
						C449,370.4,447.5,372.5,445.3,373.4z"></path>
</g>
<g>
<path class="st27" d="M445.5,385.2c-3.4,0-6.1-2.7-6.1-6.1c0-1.6,0.7-3.1,1.7-4.2c1.1-1.1,2.6-1.9,4.4-1.9
						c3.4,0,6.1,2.7,6.1,6.1c0,2.5-1.5,4.7-3.7,5.6C447.2,385,446.4,385.2,445.5,385.2z"></path>
<path class="st1" d="M447.9,384.7c-3.9-0.5-7-3.8-7-7.9c0-0.7,0.1-1.3,0.2-2c1.1-1.1,2.6-1.9,4.4-1.9c3.4,0,6.1,2.7,6.1,6.1
						C451.6,381.6,450.1,383.8,447.9,384.7z"></path>
</g>
<g>
<path class="st28" d="M468.2,387.7c-3.4,0-6.1-2.7-6.1-6.1c0-1.6,0.7-3.1,1.7-4.2c1.1-1.1,2.6-1.9,4.4-1.9
						c3.4,0,6.1,2.7,6.1,6.1c0,2.5-1.5,4.7-3.7,5.6C469.8,387.6,469,387.7,468.2,387.7z"></path>
<path class="st22" d="M470.5,387.3c-3.9-0.5-7-3.8-7-7.9c0-0.7,0.1-1.3,0.2-2c1.1-1.1,2.6-1.9,4.4-1.9c3.4,0,6.1,2.7,6.1,6.1
						C474.3,384.2,472.7,386.3,470.5,387.3z"></path>
</g>
<g>
<path class="st8" d="M455.9,359.5c-3.4,0-6.1-2.7-6.1-6.1c0-1.6,0.7-3.1,1.7-4.2c1.1-1.1,2.6-1.9,4.4-1.9
						c3.4,0,6.1,2.7,6.1,6.1c0,2.5-1.5,4.7-3.7,5.6C457.5,359.4,456.7,359.5,455.9,359.5z"></path>
<path class="st9" d="M458.2,359c-3.9-0.5-7-3.8-7-7.9c0-0.7,0.1-1.3,0.2-2c1.1-1.1,2.6-1.9,4.4-1.9c3.4,0,6.1,2.7,6.1,6.1
						C462,356,460.4,358.1,458.2,359z"></path>
</g>
<g>
<path class="st26" d="M438.4,381.4c-3.4,0-6.1-2.7-6.1-6.1c0-1.6,0.7-3.1,1.7-4.2c1.1-1.1,2.6-1.9,4.4-1.9
						c3.4,0,6.1,2.7,6.1,6.1c0,2.5-1.5,4.7-3.7,5.6C440,381.2,439.2,381.4,438.4,381.4z"></path>
<path class="st21" d="M440.7,380.9c-3.9-0.5-7-3.8-7-7.9c0-0.7,0.1-1.3,0.2-2c1.1-1.1,2.6-1.9,4.4-1.9c3.4,0,6.1,2.7,6.1,6.1
						C444.4,377.9,442.9,380,440.7,380.9z"></path>
</g>
<g>
<path class="st27" d="M439.1,365c-3.4,0-6.1-2.7-6.1-6.1c0-1.6,0.7-3.1,1.7-4.2c1.1-1.1,2.6-1.9,4.4-1.9c3.4,0,6.1,2.7,6.1,6.1
						c0,2.5-1.5,4.7-3.7,5.6C440.7,364.9,439.9,365,439.1,365z"></path>
<path class="st1" d="M441.5,364.5c-3.9-0.5-7-3.8-7-7.9c0-0.7,0.1-1.3,0.2-2c1.1-1.1,2.6-1.9,4.4-1.9c3.4,0,6.1,2.7,6.1,6.1
						C445.2,361.5,443.7,363.6,441.5,364.5z"></path>
</g>
<g>
<path class="st28" d="M459,388.7c-3.4,0-6.1-2.7-6.1-6.1c0-1.6,0.7-3.1,1.7-4.2c1.1-1.1,2.6-1.9,4.4-1.9c3.4,0,6.1,2.7,6.1,6.1
						c0,2.5-1.5,4.7-3.7,5.6C460.6,388.6,459.8,388.7,459,388.7z"></path>
<path class="st22" d="M461.4,388.3c-3.9-0.5-7-3.8-7-7.9c0-0.7,0.1-1.3,0.2-2c1.1-1.1,2.6-1.9,4.4-1.9c3.4,0,6.1,2.7,6.1,6.1
						C465.1,385.2,463.5,387.3,461.4,388.3z"></path>
</g>
<g>
<path class="st26" d="M477.2,387c-3.4,0-6.1-2.7-6.1-6.1c0-1.6,0.7-3.1,1.7-4.2c1.1-1.1,2.6-1.9,4.4-1.9c3.4,0,6.1,2.7,6.1,6.1
						c0,2.5-1.5,4.7-3.7,5.6C478.9,386.8,478.1,387,477.2,387z"></path>
<path class="st21" d="M479.6,386.5c-3.9-0.5-7-3.8-7-7.9c0-0.7,0.1-1.3,0.2-2c1.1-1.1,2.6-1.9,4.4-1.9c3.4,0,6.1,2.7,6.1,6.1
						C483.3,383.5,481.8,385.6,479.6,386.5z"></path>
</g>
<g>
<path class="st27" d="M467.4,380c-3.4,0-6.1-2.7-6.1-6.1c0-1.6,0.7-3.1,1.7-4.2c1.1-1.1,2.6-1.9,4.4-1.9c3.4,0,6.1,2.7,6.1,6.1
						c0,2.5-1.5,4.7-3.7,5.6C469.1,379.8,468.3,380,467.4,380z"></path>
<path class="st1" d="M469.8,379.5c-3.9-0.5-7-3.8-7-7.9c0-0.7,0.1-1.3,0.3-2c1.1-1.1,2.6-1.9,4.4-1.9c3.4,0,6.1,2.7,6.1,6.1
						C473.5,376.5,472,378.6,469.8,379.5z"></path>
</g>
<g>
<path class="st8" d="M452.1,387.7c-3.4,0-6.1-2.7-6.1-6.1c0-1.6,0.7-3.1,1.7-4.2c1.1-1.1,2.6-1.9,4.4-1.9
						c3.4,0,6.1,2.7,6.1,6.1c0,2.5-1.5,4.7-3.7,5.6C453.8,387.6,453,387.7,452.1,387.7z"></path>
<path class="st9" d="M454.5,387.3c-3.9-0.5-7-3.8-7-7.9c0-0.7,0.1-1.3,0.3-2c1.1-1.1,2.6-1.9,4.4-1.9c3.4,0,6.1,2.7,6.1,6.1
						C458.2,384.2,456.7,386.3,454.5,387.3z"></path>
</g>
<g>
<path class="st26" d="M457.2,381c-3.4,0-6.1-2.7-6.1-6.1c0-1.6,0.7-3.1,1.7-4.2c1.1-1.1,2.6-1.9,4.4-1.9c3.4,0,6.1,2.7,6.1,6.1
						c0,2.5-1.5,4.7-3.7,5.6C458.9,380.8,458.1,381,457.2,381z"></path>
<path class="st21" d="M459.6,380.5c-3.9-0.5-7-3.8-7-7.9c0-0.7,0.1-1.3,0.3-2c1.1-1.1,2.6-1.9,4.4-1.9c3.4,0,6.1,2.7,6.1,6.1
						C463.3,377.4,461.8,379.6,459.6,380.5z"></path>
</g>
<g>
<path class="st28" d="M475.5,377.3c-3.4,0-6.1-2.7-6.1-6.1c0-1.6,0.7-3.1,1.7-4.2c1.1-1.1,2.6-1.9,4.4-1.9
						c3.4,0,6.1,2.7,6.1,6.1c0,2.5-1.5,4.7-3.7,5.6C477.1,377.1,476.3,377.3,475.5,377.3z"></path>
<path class="st22" d="M477.8,376.8c-3.9-0.5-7-3.8-7-7.9c0-0.7,0.1-1.3,0.3-2c1.1-1.1,2.6-1.9,4.4-1.9c3.4,0,6.1,2.7,6.1,6.1
						C481.6,373.7,480,375.9,477.8,376.8z"></path>
</g>
<g>
<path class="st8" d="M447.5,377.3c-3.4,0-6.1-2.7-6.1-6.1c0-1.6,0.7-3.1,1.7-4.2c1.1-1.1,2.6-1.9,4.4-1.9
						c3.4,0,6.1,2.7,6.1,6.1c0,2.5-1.5,4.7-3.7,5.6C449.2,377.1,448.4,377.3,447.5,377.3z"></path>
<path class="st9" d="M449.9,376.8c-3.9-0.5-7-3.8-7-7.9c0-0.7,0.1-1.3,0.2-2c1.1-1.1,2.6-1.9,4.4-1.9c3.4,0,6.1,2.7,6.1,6.1
						C453.6,373.7,452.1,375.9,449.9,376.8z"></path>
</g>
<g>
<path class="st28" d="M455.9,372.4c-3.4,0-6.1-2.7-6.1-6.1c0-1.6,0.7-3.1,1.7-4.2c1.1-1.1,2.6-1.9,4.4-1.9
						c3.4,0,6.1,2.7,6.1,6.1c0,2.5-1.5,4.7-3.7,5.6C457.5,372.2,456.7,372.4,455.9,372.4z"></path>
<path class="st22" d="M458.2,371.9c-3.9-0.5-7-3.8-7-7.9c0-0.7,0.1-1.3,0.2-2c1.1-1.1,2.6-1.9,4.4-1.9c3.4,0,6.1,2.7,6.1,6.1
						C462,368.8,460.4,371,458.2,371.9z"></path>
</g>
<g>
<path class="st26" d="M465.8,373.4c-3.4,0-6.1-2.7-6.1-6.1c0-1.6,0.7-3.1,1.7-4.2c1.1-1.1,2.6-1.9,4.4-1.9
						c3.4,0,6.1,2.7,6.1,6.1c0,2.5-1.5,4.7-3.7,5.6C467.4,373.3,466.6,373.4,465.8,373.4z"></path>
<path class="st21" d="M468.2,373c-3.9-0.5-7-3.8-7-7.9c0-0.7,0.1-1.3,0.2-2c1.1-1.1,2.6-1.9,4.4-1.9c3.4,0,6.1,2.7,6.1,6.1
						C471.9,369.9,470.4,372,468.2,373z"></path>
</g>
</g>
<g>
<path class="st29" d="M495.8,337.7v5.6h0c-0.2,5.7-3,11.3-8.2,15c-15.4,10.6-35.7,10.6-51,0c-5.3-3.6-8-9.3-8.2-15h0v-5.6H495.8
					z"></path>
<path class="st25" d="M436.5,323.1L436.5,323.1c15.4-10.6,35.7-10.6,51,0l0,0c5.5,3.8,8.3,9.8,8.3,15.8s-2.8,12-8.3,15.8l0,0
					c-15.4,10.6-35.7,10.6-51,0l0,0c-5.5-3.8-8.3-9.8-8.3-15.8S431,326.9,436.5,323.1z"></path>
<path class="st5" d="M441.8,323.3L441.8,323.3c12.2-8.4,28.2-8.4,40.4,0l0,0c4.4,3,6.5,7.7,6.5,12.5s-2.2,9.5-6.5,12.5l0,0
					c-12.2,8.4-28.2,8.4-40.4,0l0,0c-4.4-3-6.5-7.7-6.5-12.5S437.4,326.3,441.8,323.3z"></path>
<path class="st5" d="M430.7,348.3c1.4,2.4,3.3,4.6,5.8,6.3c7.7,5.3,16.6,8,25.5,8c4.6,0,9.3-0.7,13.8-2.2c0.9-0.3,1.9-0.6,3-1
					c1.2-0.5,2.3-1,3.3-1.5l0,0c0,0,3.7-2,5.5-3.3c5.5-3.8,8.3-9.8,8.3-15.8c0-0.4,0-0.7,0-1.1c-1,4.9-3.8,9.5-8.4,12.7
					c-8.1,5.6-17.6,8.4-27,8.4c-9.5,0-18.9-2.8-27-8.4C432.4,349.8,431.5,349,430.7,348.3z"></path>
<path class="st29" d="M472.6,319.2v1.9h0c-0.1,1.9-1,3.7-2.7,4.9c-5.1,3.5-11.8,3.5-16.8,0c-1.7-1.2-2.6-3-2.7-4.9h0v-1.9H472.6
					z"></path>
<path class="st25" d="M453.1,314.4L453.1,314.4c5.1-3.5,11.8-3.5,16.8,0l0,0c1.8,1.3,2.7,3.2,2.7,5.2s-0.9,3.9-2.7,5.2l0,0
					c-5.1,3.5-11.8,3.5-16.8,0l0,0c-1.8-1.3-2.7-3.2-2.7-5.2C450.3,317.6,451.2,315.7,453.1,314.4z"></path>
<path class="st5" d="M451.1,322.7c0.5,0.8,1.1,1.5,1.9,2.1c2.5,1.8,5.5,2.6,8.4,2.6c1.5,0,3.1-0.2,4.5-0.7
					c0.3-0.1,0.6-0.2,1-0.4c0.4-0.2,0.8-0.3,1.1-0.5l0,0c0,0,1.2-0.7,1.8-1.1c1.8-1.3,2.7-3.2,2.7-5.2c0-0.1,0-0.2,0-0.4
					c-0.3,1.6-1.2,3.1-2.8,4.2c-2.7,1.9-5.8,2.8-8.9,2.8s-6.2-0.9-8.9-2.8C451.7,323.2,451.4,323,451.1,322.7z"></path>
<path class="st5" d="M441.1,341.2c0.9,1.6,2.2,3.1,3.9,4.3c5.2,3.6,11.3,5.4,17.3,5.4c3.2,0,6.3-0.5,9.4-1.5
					c0.6-0.2,1.3-0.4,2-0.7c0.8-0.3,1.5-0.7,2.2-1l0,0c0,0,2.5-1.4,3.8-2.2c3.8-2.6,5.6-6.6,5.6-10.7c0-0.2,0-0.5,0-0.7
					c-0.6,3.3-2.5,6.5-5.7,8.6c-5.5,3.8-11.9,5.7-18.3,5.7c-6.4,0-12.8-1.9-18.4-5.7C442.3,342.2,441.7,341.7,441.1,341.2z"></path>
<path class="st5" d="M458.6,315L458.6,315c3-2.1,7.1-2.1,10.1,0l0,0c1.1,0.8,1.6,1.9,1.6,3.1s-0.5,2.4-1.6,3.1l0,0
					c-3,2.1-7.1,2.1-10.1,0l0,0c-1.1-0.8-1.6-1.9-1.6-3.1S457.5,315.7,458.6,315z"></path>
<path class="st5" d="M465.3,317c0.2,0,3.7,0.8,4.9,4.1c0.9,2.4-1.2,5.2-1.4,5.7c1.3,0.2,3.8,0.7,5.5,1.6
					c1.2,0.7,5.5,2.7,7.6,7.2c3,6.4-0.5,12.8-0.9,13.5c0.8-0.1,2.7-0.1,4.1,1.1c2.2,1.8,2.7,5.8,0.6,9.3c-1.3,0.8-2.8,1.6-4.5,2.4
					c-1.4,0.7-2.7,1.2-4,1.6c0.2-0.4,3.5-5.5,1.2-9.8c-0.4-0.6-0.9-1.5-2-2.3c0.5-1.9,1.5-6.5-0.2-11.9c-2.3-7.4-8-11-9.5-11.9
					c0.3-1.5,0.4-3.6,0-6.2C466.4,319.6,465.8,318.1,465.3,317z"></path>
</g>
<path class="st5" d="M482.9,361.1c1.8,0,7.7,0.7,10.9,5.7c2,3.1,3.1,14.5,0.6,17.9c-0.7,0.9-1.5,1.8-1.5,1.8
				c-0.4,0.4-1.9,1.9-5.4,4.1c-2,1.2-3.6,2-4,2.2c-2.5,1.1-4.5,2-6.1,2.5c-2.2,0.8-4.5-0.8-4.5-3.2l0-11.2c0.2-13.9-2.3-15-2.7-15.5
				C472,365.3,481,362.5,482.9,361.1z"></path>
<path class="st29" d="M498.7,357.2c-1.1,16-1.1,16-3,20.2c-1.6,3.6-4,5.8-5.1,6.9c-6.5,6-21.1,12.3-37.6,9.7
				c-11.2-1.8-19.4-6.9-24.2-10.6c0.7,1.1,1.6,2.2,2.5,3.2c1.4,1.4,2.6,2.3,3.3,2.8c6.8,4.7,14.2,6.6,14.2,6.6
				c3,0.9,5.5,1.3,7.2,1.5c2.6,0.3,6.3,0.4,6.3,0.4l0,0c0,0,5.6-0.1,10.9-1.2c4.5-1,7.8-2.5,9.8-3.4c0,0,3.6-1.7,6.9-3.9
				c1.3-0.9,2.5-2,2.5-2c0.5-0.4,1-1,1.7-1.8c0,0,1.1-1.3,2-2.7c1.3-2.2,3-6,2.9-10.3C498.8,364,498.7,365.6,498.7,357.2z"></path>
</g>
</g>
</g>
<g id="Layer_16">
<g>
<path class="st0" d="M212.5,140.8l162.8,0.4v8.6h0c0,1.2-0.5,2.4-1.7,3.1l-77.3,37c-1.2,0.7-2.6,0.7-3.8,0L214.3,153
			c-1.3-0.8-1.9-2.3-1.7-3.6h-0.1L212.5,140.8L212.5,140.8z"></path>
<path class="st0" d="M293.9,183l296.3,89v8l0,0c0,1.1-0.5,2.3-1.6,2.9l-71.7,44.5c-1.1,0.7-2.5,0.7-3.5,0L403,260l-107.4-65.6
			c-1.2-0.8-1.7-2.1-1.6-3.4h-0.1V183z"></path>
<path class="st0" d="M293.9,183L23.6,256.8v8l0,0c0,1.1,0.5,2.3,1.6,2.9l71.7,44.5c1.1,0.7,2.4,0.7,3.5,0l84.4-52.2l107.4-65.6
			c1.2-0.8,1.7-2.1,1.6-3.4h0.1L293.9,183L293.9,183z"></path>
<path class="st1" d="M367.2,135.1c1.1-0.7,2.5-0.7,3.5,0l110.3,67.4l107.4,65.6c2.1,1.3,2.2,4.4,0,5.7l-71.7,44.5
			c-1.1,0.7-2.5,0.7-3.5,0L403,251l-107.4-65.6c-2.1-1.3-2.1-4.4,0-5.7L367.2,135.1z"></path>
<path class="st1" d="M220.6,135.1c-1.1-0.7-2.4-0.7-3.5,0l-110.3,67.4l-81.5,50.4c-2.1,1.3-2.1,4.4,0,5.7L97,303.1
			c1.1,0.7,2.4,0.7,3.5,0l84.4-52.2l107.4-65.6c2.1-1.3,2.1-4.4,0-5.7L220.6,135.1z"></path>
<path class="st1" d="M291.6,89.1c1.2-0.7,2.6-0.7,3.8,0l78.2,48c2.3,1.4,2.3,4.8,0,6.2l-77.3,41c-1.2,0.7-2.6,0.7-3.8,0
			l-78.2-40.9c-2.3-1.4-2.3-4.8,0-6.2L291.6,89.1z"></path>
</g>
</g>
<g id="Layer_12">
<g>
<path class="st7" d="M360.9,129.4c-4.8-2.9-17.1-10.4-21.9-13.4c-1.9-1.1-11.1-6.8-13-7.9c-3.4,0.5-27.3,7.1-27.6,17.7
			c-0.4,12.7,12.4,22.1,13.7,23c9.3,6,20,5.1,22.4,4.9c1.7-0.1,3-0.2,4.8-0.7c12.5-3.2,18.5-16.1,19.7-18.8
			C360,132.1,360.5,130.4,360.9,129.4z"></path>
<g>
<path class="st21" d="M312.2,72.8c0-5.7,3-10.6,7.5-13.4V27.3H336v32.1c4.5,2.8,7.5,7.7,7.5,13.4l0,55.9c0,2.8-1.3,5.6-3.8,7.3
				l0,0c-7.1,4.9-16.6,4.9-23.7,0l0,0c-2.6-1.8-3.8-4.5-3.8-7.3L312.2,72.8z"></path>
<path class="st5" d="M312.2,128.3c0,1.4,0.3,2.8,1,4c0.6,1.3,1.6,2.4,2.9,3.3c3.6,2.5,7.7,3.7,11.9,3.7s8.3-1.2,11.9-3.7
				c2.6-1.8,3.8-4.5,3.8-7.3l0-38.8c-1.1,9.8-28.8,23.7-31.4,12.9L312.2,128.3z"></path>
<path class="st5" d="M330.6,31.2h2.4v30.6c0.7,0.3,5.3,3.8,5.2,9.3l0,0c0,27.3,0,38.7,0,65.9c-0.7,0.4-1.5,0.8-2.3,1.1
				c-1.2,0.5-2.4,0.8-3.3,1.1V71h0c-0.1-6.4-1.5-7.2-2-8.4L330.6,31.2L330.6,31.2z"></path>
<path class="st16" d="M337,22.1v6.6h0c-0.1,1.5-0.8,3-2.2,4c-4.1,2.8-9.6,2.8-13.7,0c-1.4-1-2.1-2.5-2.2-4h0v-6.6
				C318.8,22.1,337,22.1,337,22.1z"></path>
<path class="st17" d="M321,17.9L321,17.9c4.1-2.8,9.6-2.8,13.7,0l0,0c1.5,1,2.2,2.6,2.2,4.2s-0.7,3.2-2.2,4.2l0,0
				c-4.1,2.8-9.6,2.8-13.7,0l0,0c-1.5-1-2.2-2.6-2.2-4.2S319.5,18.9,321,17.9z"></path>
<path class="st26" d="M343.5,121.9c-0.5,7-0.5,7-1.3,8.9c-0.7,1.6-1.7,2.5-2.2,3c-2.8,2.6-9.1,5.4-16.2,4.2
				c-4.8-0.8-8.3-3-10.4-4.7c0.6,1,1.5,1.9,2.5,2.6c3.6,2.5,7.7,3.7,11.9,3.7s8.3-1.2,11.9-3.7c1.6-1.1,2.3-2.2,2.6-2.8
				c1-1.8,1.2-3.6,1.2-4.6C343.6,124.9,343.5,125.6,343.5,121.9z"></path>
<path class="st5" d="M320.5,25.4c2.1,1.4,4.5,2.1,6.9,2.1s4.8-0.7,6.9-2.1c1.5-1,2.2-2.6,2.2-4.2c0-0.7-0.2-1.5-0.5-2.2
				c0.2,0.2,0.3,0.5,0.5,0.8c0.4,0.7,0.6,1.5,0.6,2.3c0,1.6-0.7,3.2-2.2,4.2c-0.1,0.1-0.3,0.2-0.3,0.2c0,2.9,0,3.5,0,6.4
				c-0.3,0.2-0.6,0.4-1,0.6c-0.5,0.3-1,0.4-1.4,0.6c0-3.3,0-3.1,0-6.4c0,0-2,0.7-4.1,0.7c-2.4,0-4.8-0.7-6.9-2.1
				c-0.7-0.5-1.3-1.2-1.7-1.9c0-0.1-0.1-0.1-0.1-0.2C319.6,24.7,320,25.1,320.5,25.4z"></path>
</g>
</g>
</g>
<g id="Layer_11">
<g>
<path class="st7" d="M361,172.9c8.6-2.4,20.6-5.6,25.2-14.7c1.1-2.1,2.5-6.2,1.5-12.5c-6.1-3.6-12.2-7.3-18.3-11
			c-3.6-0.3-10.2-0.3-17.5,2.8c-7.3,3.1-11.7,7.7-12.9,9.1c-3.2,3.6-8.4,9.3-7.4,14.9c1.2,6.8,11.3,12.5,25,12.4
			C357.6,173.7,359.1,173.4,361,172.9z"></path>
<g>
<g>
<path class="st8" d="M341.5,69.1c0-6.7,3.6-12.6,8.9-15.9V27.6h19.4v25.6c5.4,3.3,8.9,9.2,8.9,15.9l0,85.4
					c0,3.3-1.5,6.6-4.6,8.7l0,0c-8.5,5.9-19.7,5.9-28.2,0l0,0c-3-2.1-4.6-5.4-4.6-8.7L341.5,69.1z"></path>
<path class="st5" d="M341.5,154c0,1.6,0.4,3.3,1.1,4.8s1.9,2.9,3.4,3.9c4.2,2.9,9.2,4.4,14.1,4.4s9.9-1.5,14.1-4.4
					c3-2.1,4.6-5.4,4.6-8.7l0-46.1c-1.3,11.6-34.3,28.2-37.3,15.3L341.5,154z"></path>
<path class="st5" d="M363.4,32.2h2.9V56c0.8,0.3,6.3,4.5,6.2,11l0,0c0,32.4,0,64.9,0,97.3c-0.8,0.5-1.7,0.9-2.8,1.4
					c-1.5,0.6-2.8,1-4,1.3V67h0c-0.2-7.6-1.8-8.5-2.4-10V32.2z"></path>
<path class="st9" d="M371,21.4v7.8h0c-0.1,1.8-0.9,3.6-2.6,4.8c-4.9,3.4-11.4,3.4-16.3,0c-1.7-1.2-2.5-3-2.6-4.8h0v-7.8
					C349.4,21.4,371,21.4,371,21.4z"></path>
<path class="st10" d="M352,16.4L352,16.4c4.9-3.4,11.4-3.4,16.3,0l0,0c1.8,1.2,2.6,3.1,2.6,5s-0.9,3.8-2.6,5l0,0
					c-4.9,3.4-11.4,3.4-16.3,0l0,0c-1.8-1.2-2.6-3.1-2.6-5S350.3,17.6,352,16.4z"></path>
<path class="st11" d="M367.7,5.3l-0.9,14.3h0c0,1.3-0.7,2.5-1.8,3.3c-3.4,2.4-6.2,2.4-9.6,0c-1.2-0.8-1.8-2.1-1.8-3.3h0
					l-0.9-14.3C352.6,5.3,367.7,5.3,367.7,5.3z"></path>
<path class="st12" d="M354.5,1.8L354.5,1.8c3.4-2.4,8-2.4,11.4,0l0,0c1.2,0.8,1.9,2.2,1.9,3.5s-0.6,2.7-1.9,3.5l0,0
					c-3.4,2.4-8,2.4-11.4,0l0,0c-1.2-0.8-1.9-2.2-1.9-3.5S353.2,2.6,354.5,1.8z"></path>
<path class="st8" d="M378.8,146.4c-0.6,8.4-0.6,8.4-1.5,10.5c-0.8,1.9-2,3-2.6,3.6c-3.3,3.1-10.8,6.4-19.2,5
					c-5.7-0.9-9.9-3.6-12.4-5.6c0.7,1.2,1.7,2.3,3,3.1c4.3,3,9.2,4.4,14.1,4.4s9.9-1.5,14.1-4.4c1.9-1.3,2.7-2.6,3.1-3.4
					c1.3-2.1,1.4-4.3,1.5-5.4C378.8,150,378.8,150.8,378.8,146.4z"></path>
<path class="st5" d="M351.4,25.4c2.5,1.7,5.3,2.5,8.1,2.5c2.9,0,5.7-0.9,8.1-2.5c1.8-1.2,2.6-3.1,2.6-5c0-0.9-0.2-1.8-0.6-2.6
					c0.2,0.3,0.4,0.6,0.6,0.9c0.4,0.9,0.7,1.8,0.7,2.8c0,1.9-0.9,3.8-2.6,5c-0.2,0.1-0.4,0.3-0.4,0.3c0,3.4,0,4.2,0,7.6
					c-0.3,0.3-0.7,0.5-1.2,0.8c-0.6,0.3-1.2,0.5-1.7,0.7c0-3.9,0-3.7,0-7.6c0,0-2.3,0.9-4.9,0.9c-2.9,0-5.7-0.9-8.1-2.5
					c-0.9-0.6-1.5-1.4-2-2.3c0-0.1-0.1-0.1-0.1-0.2C350.3,24.5,350.8,25,351.4,25.4z"></path>
<path class="st12" d="M367.2,12.9l-0.4,6.6h0c-0.1,1.3-0.7,2.5-1.8,3.3c-3.4,2.4-6.2,2.4-9.6,0c-1.2-0.8-1.8-2.1-1.8-3.3h0
					l-0.1-1.8C358,24.3,366.6,18.7,367.2,12.9z"></path>
</g>
</g>
</g>
</g>
<g id="Layer_10">
<g>
<path class="st7" d="M356.5,173.9c-5.4,11.8-2.8,18.6-1.9,20.5c8,17.3,43.7,10.8,47.1,10.1c4.2-1,7.4-3.1,7.4-3.1
			c1.6-1,2.6-1.9,3.1-2.4c10.9-9.8,15.9-12.1,18.7-19.2c0.6-1.5,1.3-3.7,1.6-6.7c-13-7.9-26-15.9-39-23.8
			c-4.6,0.9-11.4,2.8-18.5,7.1C365.3,162.2,359.5,169.5,356.5,173.9z"></path>
<g>
<path class="st21" d="M364.5,113.3c0-4.7,3.8-8.4,8.4-8.4h41.7c4.7,0,8.4,3.8,8.4,8.4v63.5h0c0,5.1-2.4,10.3-7.2,13.5l0,0
				c-13.3,9.2-30.9,9.2-44.2,0l0,0c-4.7-3.3-7.1-8.4-7.2-13.5h0V113.3z"></path>
<path class="st1" d="M364.5,133.6c0.2,5,2.6,9.9,7.2,13.1c13.4,9.2,31,9.2,44.3,0c4.6-3.2,7-8.1,7.2-13.1h0.1V156h-0.1
				c0,5.2-2.4,10.4-7.2,13.7c-13.4,9.2-31,9.2-44.3,0c-4.8-3.3-7.2-8.5-7.2-13.7h-0.1v-22.4H364.5z"></path>
<path class="st1" d="M393.8,185.7L393.8,185.7c8.7,0,15.8-7.1,15.8-15.8v-17.9c0-8.7-7-15.8-15.8-15.8l0,0
				c-8.7,0-15.8,7.1-15.8,15.8V170C378.1,178.7,385.1,185.7,393.8,185.7z"></path>
<g class="st24">
<path class="st3" d="M409,115.7c1,0.4,7.7,5.8,7.5,13.7l0,0c0,39.4,0,20.7,0,60.2c-1,0.6-2.1,1.1-3.4,1.6
					c-1.8,0.7-3.4,1.3-4.8,1.6v-55.5c0-5.9-0.7-11.9-2.1-17.7c-0.3-1.3-0.6-2.3-0.8-2.7C406.6,116.7,408.4,116,409,115.7z"></path>
</g>
<g>
<path class="st16" d="M420.8,97v7.4h0c-0.2,4.6-2.4,9-6.6,11.9c-12.3,8.5-28.5,8.5-40.8,0c-4.2-2.9-6.4-7.4-6.6-11.9h0V97H420.8
					z"></path>
<path class="st17" d="M373.5,84.2L373.5,84.2c12.3-8.5,28.5-8.5,40.8,0l0,0c4.4,3,6.6,7.8,6.6,12.6s-2.2,9.5-6.6,12.6l0,0
					c-12.3,8.5-28.5,8.5-40.8,0l0,0c-4.4-3-6.6-7.8-6.6-12.6S369,87.2,373.5,84.2z"></path>
</g>
<path class="st26" d="M423,164.8c-0.9,12.8-0.9,12.8-2.4,16.1c-1.3,2.9-3.1,4.6-4.1,5.5c-5.2,4.8-16.9,9.8-30,7.7
				c-9-1.4-15.5-5.5-19.3-8.5c1.1,1.8,2.7,3.5,4.6,4.8c6.6,4.5,14.4,6.8,22.1,6.8c7.7,0,15.4-2.3,22.1-6.8c2.9-2,4.2-4,4.9-5.2
				c2-3.3,2.3-6.6,2.3-8.3C423.1,170.3,423.1,171.5,423,164.8z"></path>
<g>
<path class="st12" d="M393.8,145.9c1.5,0,3,0.6,4.2,1.8c1.3,1.4,2.2,3.3,2.9,5.2c0.4,1,0.8,2.2,1.6,4.5c1,3.2,1.6,4.9,1.7,5.7
					c0.3,1.8,0.7,4.1-0.1,6.8c-0.3,0.9-1,3.4-3.5,5.5c-2.5,2.2-5.3,2.2-6.5,2.2c-0.1,0-0.2,0-0.3,0"></path>
<path class="st16" d="M400.2,167.3L400.2,167.3c0-3.5-2.9-6.4-6.4-6.4s-6.4,2.9-6.4,6.4l0,0c0,3.5,2.9,6.4,6.4,6.4l0,0
					C397.3,173.8,400.2,170.9,400.2,167.3z"></path>
</g>
<path class="st5" d="M368.8,104.3c1.1,1.9,2.6,3.7,4.6,5.1c6.1,4.2,13.3,6.3,20.4,6.3c3.7,0,7.4-0.6,11-1.7v7
				c1.7-0.5,3.3-1.2,5-2v-7c0,0,3-1.6,4.4-2.6c4.4-3,6.6-7.8,6.6-12.6c0-0.3,0-0.6,0-0.9c-0.8,3.9-3,7.6-6.7,10.2
				c-6.5,4.5-14,6.7-21.6,6.7c-7.5,0-15.1-2.2-21.6-6.7C370.2,105.5,369.5,104.9,368.8,104.3z"></path>
</g>
</g>
</g>
<g id="Layer_9">
<g>
<path class="st7" d="M480.7,202.4c-13.6-8.2-26.4-16.1-43-26c-4.5,1.8-11.2,5.1-17.8,11.3c-5.3,4.9-8.7,10-10.8,13.8
			c-0.8,1.1-6.1,8.6-3.7,18.2c1.9,7.6,8,13.7,15.8,15.8c0,0,0,0,0,0c0,0,1.2,0.4,2.3,0.8c25.7,8.8,43.4-6.4,43.4-6.4
			c0.9-0.8,1.5-1.4,1.9-1.9C477.1,219.3,479.8,209.1,480.7,202.4"></path>
<g>
<g>
<path class="st12" d="M419.1,133c0-4.5,3.7-8.2,8.2-8.2h29.4c4.5,0,8.2,3.7,8.2,8.2l5.6,36.3v30c0,3.5-0.8,6.9-2.3,10.1
					c-2.1,4.3-9.6,12.3-10.2,12.6c-9.6,6.6-22.4,6.6-32,0c-0.5-0.4-8.1-8.4-10.2-12.6c-1.5-3.1-2.3-6.6-2.3-10.1v-30L419.1,133z"></path>
<path class="st1" d="M413.5,170.1c0.2,4.9,2.5,9.6,7,12.7c13,9,30.2,9,43.2,0c4.5-3.1,6.8-7.9,7-12.7h0.1v29.5h-0.1
					c0,5.1-2.3,10.1-7,13.3c-13,9-30.2,9-43.2,0c-4.7-3.2-7-8.3-7-13.3h-0.1L413.5,170.1L413.5,170.1z"></path>
<path class="st5" d="M450.5,134.6c1.8,1.1,3,4.2,3,7.8l2.1,46.6c0,0-0.5,33.8-0.5,34.2c2.1-1.2,4.4-2.1,4.9-4.3
					c0.8-3.1,0.9-6.3,0.9-9.8v-26.6l-3.1-39.7c0-4.5-2-8.2-4.5-8.2H450.5z"></path>
<path class="st11" d="M424.7,220.6c0.7,0.8,1.2,1.3,1.3,1.4c9.1,6.4,22.7,6.8,32,0c4.7-3.4,8.5-9.9,10.2-12.7
					c-0.9,0.9-4.5,5.4-6.2,7c-3.7,3.5-6.1,4.3-6.5,4.6C451.1,224.3,433.1,225.5,424.7,220.6z"></path>
<g>
<path class="st32" d="M466.9,120.3v6.8h0c-0.2,4.2-2.2,8.3-6,11c-11.3,7.8-26.2,7.8-37.5,0c-3.9-2.7-5.9-6.8-6-11h0v-6.8
						C417.2,120.3,466.9,120.3,466.9,120.3z"></path>
<path class="st8" d="M423.3,108.5L423.3,108.5c11.3-7.8,26.2-7.8,37.5,0l0,0c4.1,2.8,6.1,7.2,6.1,11.6s-2,8.8-6.1,11.6l0,0
						c-11.3,7.8-26.2,7.8-37.5,0l0,0c-4.1-2.8-6.1-7.2-6.1-11.6S419.2,111.3,423.3,108.5z"></path>
<path class="st5" d="M419,127c1,1.8,2.4,3.4,4.3,4.7c5.6,3.9,12.2,5.8,18.8,5.8c3.4,0,6.8-0.5,10.1-1.6v6.4
						c1.5-0.5,3.1-1.1,4.6-1.9V134c0,0,2.7-1.5,4.1-2.4c4.1-2.8,6.1-7.2,6.1-11.6c0-0.3,0-0.5,0-0.8c-0.7,3.6-2.8,7-6.1,9.4
						c-6,4.1-12.9,6.2-19.9,6.2c-7,0-13.9-2.1-19.9-6.2C420.3,128.1,419.6,127.6,419,127z"></path>
</g>
</g>
<g>
<circle class="st27" cx="433.3" cy="203.3" r="1.4"></circle>
<circle class="st3" cx="438.5" cy="200.1" r="1.4"></circle>
<circle class="st11" cx="440.2" cy="205.1" r="1.4"></circle>
<circle class="st3" cx="444.5" cy="203.5" r="1.4"></circle>
<circle class="st12" cx="439.2" cy="210.3" r="1.4"></circle>
<circle class="st3" cx="431.1" cy="209.2" r="1.4"></circle>
<circle class="st27" cx="447" cy="207.9" r="1.4"></circle>
<circle class="st12" cx="451.9" cy="203.9" r="1.4"></circle>
<circle class="st3" cx="452.4" cy="209.7" r="1.4"></circle>
<circle class="st11" cx="446.8" cy="213" r="1.4"></circle>
<circle class="st3" cx="430" cy="195.6" r="1.4"></circle>
<circle class="st11" cx="444.7" cy="198" r="1.4"></circle>
<circle class="st27" cx="452.5" cy="196.8" r="1.4"></circle>
</g>
</g>
</g>
</g>
<g id="Layer_8">
<g>
<path class="st7" d="M461.9,231.3c-1.3,4.6-4.4,15.7,0.5,25.5c13.1,26.6,70.2,20.1,78.7,10.8c1.2-1.3,10.9-13.7,7.9-21.3
			c-0.9-2.3-2.6-3.6-3.6-4.3c-7.1-5.1-30.5-19.6-62.2-38.4C480,205.6,466.6,214.1,461.9,231.3z"></path>
<g>
<g>
<path class="st25" d="M469.9,228.2c0-9.1,7.4-16.5,16.5-16.5h40.3c9.1,0,16.5,7.4,16.5,16.5v16.6h0c0,6.4-3,12.8-9,16.9l0,0
					c-16.7,11.5-38.7,11.5-55.3,0l0,0c-5.9-4.1-8.9-10.5-9-16.9h0L469.9,228.2L469.9,228.2z"></path>
<g>
<g>
<defs>
<path id="SVGID_5_" d="M469.9,228.2c0-9.1,7.4-16.5,16.5-16.5h40.3c9.1,0,16.5,7.4,16.5,16.5v16.6h0c0,6.4-3,12.8-9,16.9l0,0
								c-16.7,11.5-38.7,11.5-55.3,0l0,0c-5.9-4.1-8.9-10.5-9-16.9h0L469.9,228.2L469.9,228.2z"></path>
</defs>
<clipPath id="SVGID_6_">
<use xlink:href="#SVGID_5_" style="overflow:visible;"></use>
</clipPath>
<path class="st33" d="M469.7,223.7c0.2,6.2,3.3,12.4,9.1,16.4c16.7,11.5,38.8,11.5,55.5,0c5.8-4,8.8-10.1,9.1-16.4l0,0v13
							c0,6.5-3.1,13-9.1,17.1c-16.7,11.5-38.8,11.5-55.5,0c-6-4.1-9.1-10.6-9.1-17.1l0,0L469.7,223.7L469.7,223.7z"></path>
</g>
</g>
<path class="st5" d="M524.5,228.9c0.9,0.4,7.3,3.5,7.1,11.6l0,0c0,40.6,0-19.8,0,20.9c-0.9,0.6-2,1.1-3.2,1.6
					c-1.7,0.8-3.2,1.3-4.6,1.7v-16c0-6.1-0.7-9.8-2-15.7c-0.3-1.3-0.5-2.3-0.7-2.8C522.2,229.9,524,229.3,524.5,228.9z"></path>
<path class="st29" d="M543.2,229.7c-1.1,16-1.1,16-3,20.2c-1.6,3.6-4,5.8-5.1,6.9c-6.5,6-21.1,12.3-37.6,9.7
					c-11.2-1.8-19.4-6.9-24.2-10.6c1.4,2.3,3.4,4.3,5.8,6c8.3,5.7,18,8.5,27.6,8.5c9.7,0,19.3-2.8,27.7-8.5c3.7-2.5,5.3-5,6.1-6.5
					c2.5-4.1,2.8-8.2,2.8-10.4C543.3,236.5,543.2,238.1,543.2,229.7z"></path>
<path class="st22" d="M540.4,210.2v5.6h0c-0.2,5.7-3,11.3-8.2,15c-15.4,10.6-35.7,10.6-51,0c-5.3-3.6-8-9.3-8.2-15h0v-5.6H540.4
					z"></path>
<path class="st34" d="M481.1,195.6L481.1,195.6c15.4-10.6,35.7-10.6,51,0l0,0c5.5,3.8,8.3,9.8,8.3,15.8s-2.8,11.9-8.3,15.8l0,0
					c-15.4,10.6-35.7,10.6-51,0l0,0c-5.5-3.8-8.3-9.8-8.3-15.8S475.6,199.4,481.1,195.6z"></path>
<path class="st5" d="M475.3,220.8c1.4,2.4,3.3,4.6,5.8,6.3c7.7,5.3,16.6,7.9,25.5,7.9c4.6,0,9.3-0.7,13.8-2.2l0.1,3.7
					c2.1-0.7,4.2-1.5,6.2-2.5l-0.1-3.7c0,0,3.7-2,5.5-3.3c5.5-3.8,8.3-9.8,8.3-15.8c0-0.4,0-0.7,0-1.1c-1,4.9-3.8,9.5-8.4,12.7
					c-8.1,5.6-17.6,8.4-27,8.4c-9.5,0-18.9-2.8-27-8.4C477,222.3,476.1,221.6,475.3,220.8z"></path>
<path class="st16" d="M506.6,268L506.6,268c-5.8,0-10.6-4.8-10.6-10.6v-3.8c0-5.8,4.8-10.6,10.6-10.6l0,0
					c5.8,0,10.6,4.8,10.6,10.6v3.8C517.2,263.3,512.4,268,506.6,268z"></path>
<path class="st3" d="M508.2,262.3c-0.2,0.1-0.4,0.2-0.7,0.2c-0.5,0-1-0.3-1.2-0.7c-0.3-0.6-0.6-1.3-0.8-2
					c-0.2-0.7-0.3-1.5-0.3-2.3c0-0.6,0.1-1.3,0.3-1.9c0.2-0.7,0.9-1.2,1.7-1s1.2,0.9,1,1.7c-0.1,0.4-0.2,0.8-0.2,1.3
					c0,0.7,0.1,1.5,0.4,2.2c0.1,0.3,0.2,0.5,0.3,0.7C509.1,261.1,508.8,261.9,508.2,262.3z"></path>
<path class="st12" d="M513,255.1c0,0.1,0,0.2-0.1,0.4c0,0,0,0.1-0.1,0.1s0,0.1-0.1,0.1c-0.3,0.4-0.6,0.7-1,1
					c-1,0.7-2.2,1.2-3.4,1.5c-0.6,0.1-1.2,0.2-1.8,0.2c-0.4,0-0.7,0-1.1-0.1c-1.4-0.2-2.9-0.7-4.1-1.6c-0.4-0.3-0.8-0.6-1-1
					c-0.1-0.1-0.1-0.1-0.1-0.2c0-0.1-0.1-0.2-0.1-0.4c0-1.8,0.7-3.4,1.9-4.6c1.1-1.1,2.5-1.8,4.1-1.9c0.3,0,0.6,0,0.8,0
					C510.4,248.9,513,251.7,513,255.1z"></path>
</g>
</g>
</g>
</g>
<g id="Layer_13">
<g>
<path class="st7" d="M236.9,196.6c6.1,2.3,12.1,4.7,18.2,7c13.5-10.4,27-20.7,40.5-31.1c-30.4-13.1-51.1-22.1-82.8-34
			c-10.5,6.3-20.9,12.6-31.4,18.8C199.9,170.4,218.4,183.5,236.9,196.6z"></path>
<g>
<g>
<polygon class="st35" points="255.5,100.8 188.6,59.1 219.4,40.5 286.2,81.5 				"></polygon>
<polygon class="st36" points="255.5,195.3 188.6,153.6 255.5,105.7 286.2,176 				"></polygon>
<polygon class="st32" points="255.5,195.2 188.6,153.6 188.6,59.1 255.5,100.7 				"></polygon>
<polygon class="st8" points="255.5,195.3 286.2,176 286.2,81.5 255.5,100.8 				"></polygon>
<path class="st5" d="M265.8,137.7l12.2-7.6c0.5-0.4,0.9-1,0.9-1.6V98.9c0-1.5-1.6-2.4-2.9-1.6l-12.2,7.6c-0.5,0.3-0.9,1-0.9,1.6
					v29.6C262.9,137.6,264.5,138.5,265.8,137.7z"></path>
<polygon class="st5" points="255.5,195.3 286.2,176 286.2,111.5 				"></polygon>
</g>
<path class="st5" d="M266.5,180.7l13.8-8.6c1.3-0.8,2.1-2.2,2.1-3.8v-19.1c0-3.5-3.8-5.6-6.8-3.8l-13.8,8.6
				c-1.3,0.8-2.1,2.2-2.1,3.8V177C259.7,180.5,263.5,182.6,266.5,180.7z"></path>
<g>
<g>
<g class="st31">
<path class="st3" d="M264,148.2l0.6,0.1c-0.1,0.4-0.2,0.8-0.5,1c-0.3,0.2-0.6,0.4-1,0.4c-0.5,0-0.9-0.2-1.2-0.5
							c-0.3-0.3-0.5-0.8-0.5-1.4c0-0.4,0.1-0.7,0.2-1s0.3-0.5,0.6-0.7s0.6-0.2,0.9-0.2c0.4,0,0.7,0.1,1,0.3s0.4,0.5,0.5,0.9
							l-0.6,0.1c-0.1-0.2-0.2-0.4-0.3-0.6c-0.1-0.1-0.3-0.2-0.5-0.2c-0.3,0-0.6,0.1-0.8,0.3c-0.2,0.2-0.3,0.6-0.3,1.1
							c0,0.5,0.1,0.9,0.3,1.1c0.2,0.2,0.4,0.3,0.7,0.3c0.2,0,0.5-0.1,0.6-0.2C263.8,148.8,263.9,148.5,264,148.2z"></path>
</g>
</g>
<g>
<g class="st31">
<path class="st3" d="M267.6,146.1l0.6,0.1c-0.1,0.4-0.3,0.7-0.6,0.9s-0.6,0.3-1.1,0.3c-0.5,0-1-0.2-1.3-0.5
							c-0.3-0.3-0.5-0.8-0.5-1.4c0-0.6,0.2-1.1,0.5-1.4s0.7-0.5,1.2-0.5c0.5,0,0.9,0.2,1.2,0.5s0.5,0.8,0.5,1.4c0,0,0,0.1,0,0.2
							h-2.8c0,0.4,0.1,0.7,0.3,0.9c0.2,0.2,0.5,0.3,0.8,0.3c0.2,0,0.4-0.1,0.6-0.2C267.4,146.6,267.5,146.4,267.6,146.1z
							 M265.5,145.1h2.1c0-0.3-0.1-0.5-0.2-0.7c-0.2-0.2-0.5-0.4-0.8-0.4c-0.3,0-0.5,0.1-0.7,0.3S265.6,144.8,265.5,145.1z"></path>
</g>
</g>
<g>
<g class="st31">
<path class="st3" d="M268.4,145.2v-3.7h0.6v0.6c0.1-0.3,0.3-0.4,0.4-0.5c0.1-0.1,0.3-0.1,0.4-0.1c0.2,0,0.4,0.1,0.6,0.2
							l-0.2,0.6c-0.2-0.1-0.3-0.1-0.5-0.1c-0.1,0-0.3,0-0.4,0.1c-0.1,0.1-0.2,0.2-0.2,0.3c-0.1,0.2-0.1,0.5-0.1,0.7v1.9H268.4z"></path>
</g>
</g>
<g>
<g class="st31">
<path class="st3" d="M274.5,141.8l0.6,0.1c-0.1,0.4-0.3,0.7-0.6,0.9s-0.6,0.3-1.1,0.3c-0.5,0-1-0.2-1.3-0.5
							c-0.3-0.3-0.5-0.8-0.5-1.4c0-0.6,0.2-1.1,0.5-1.4s0.7-0.5,1.2-0.5c0.5,0,0.9,0.2,1.2,0.5s0.5,0.8,0.5,1.4c0,0,0,0.1,0,0.2
							h-2.8c0,0.4,0.1,0.7,0.3,0.9c0.2,0.2,0.5,0.3,0.8,0.3c0.2,0,0.4-0.1,0.6-0.2C274.3,142.3,274.4,142.1,274.5,141.8z
							 M272.4,140.8h2.1c0-0.3-0.1-0.5-0.2-0.7c-0.2-0.2-0.5-0.4-0.8-0.4c-0.3,0-0.5,0.1-0.7,0.3S272.5,140.5,272.4,140.8z"></path>
</g>
</g>
<g>
<g class="st31">
<path class="st3" d="M277.8,140.4c-0.2,0.2-0.5,0.3-0.7,0.4c-0.2,0.1-0.4,0.1-0.7,0.1c-0.4,0-0.7-0.1-0.9-0.3
							c-0.2-0.2-0.3-0.5-0.3-0.8c0-0.2,0-0.3,0.1-0.5c0.1-0.1,0.2-0.3,0.3-0.4c0.1-0.1,0.3-0.2,0.5-0.2c0.1,0,0.3-0.1,0.6-0.1
							c0.5-0.1,0.9-0.1,1.1-0.2c0-0.1,0-0.1,0-0.2c0-0.3-0.1-0.4-0.2-0.5c-0.2-0.1-0.4-0.2-0.7-0.2c-0.3,0-0.5,0.1-0.7,0.2
							c-0.1,0.1-0.2,0.3-0.3,0.5l-0.6-0.1c0.1-0.3,0.1-0.5,0.3-0.6c0.1-0.2,0.3-0.3,0.6-0.4c0.2-0.1,0.5-0.1,0.8-0.1
							c0.3,0,0.6,0,0.8,0.1c0.2,0.1,0.3,0.2,0.4,0.3c0.1,0.1,0.2,0.3,0.2,0.4c0,0.1,0,0.3,0,0.6v0.8c0,0.6,0,1,0,1.1
							c0,0.2,0.1,0.3,0.2,0.4h-0.7C277.8,140.7,277.8,140.6,277.8,140.4z M277.7,139c-0.2,0.1-0.6,0.2-1,0.2c-0.3,0-0.4,0.1-0.5,0.1
							c-0.1,0-0.2,0.1-0.2,0.2c-0.1,0.1-0.1,0.2-0.1,0.3c0,0.2,0.1,0.3,0.2,0.4c0.1,0.1,0.3,0.2,0.6,0.2c0.2,0,0.5-0.1,0.6-0.2
							c0.2-0.1,0.3-0.3,0.4-0.4c0.1-0.1,0.1-0.3,0.1-0.6V139z"></path>
</g>
</g>
<g>
<g class="st31">
<path class="st3" d="M279,139v-5.1h0.6v5.1H279z"></path>
</g>
</g>
</g>
</g>
</g>
</g>
<g id="Layer_14">
<g>
<path class="st7" d="M188.9,215.9c3.1,1.3,6.3,2.6,9.4,3.8c12.8-7.7,25.6-15.4,38.4-23.1c-18.5-13.1-37-26.2-55.5-39.3
			c-18.1,11-36.3,22-54.4,32.9C147.5,198.9,168.1,207.4,188.9,215.9z"></path>
<g>
<g>
<polygon class="st12" points="196.6,113.3 150.5,84.3 181.2,65.8 227.3,94 				"></polygon>
<polygon class="st36" points="196.6,207.8 150.5,178.9 196.6,118.2 227.3,188.5 				"></polygon>
<polygon class="st29" points="196.6,207.8 150.5,178.8 150.5,84.3 196.6,113.2 				"></polygon>
<polygon class="st25" points="196.6,207.8 227.3,188.5 227.3,94 196.6,113.3 				"></polygon>
<polygon class="st5" points="196.6,119.8 227.3,100.5 227.3,94 196.6,113.3 				"></polygon>
<path class="st5" d="M208.1,187.9l13.8-8.6c1.3-0.8,2.1-2.2,2.1-3.8v-59.1c0-3.5-3.8-5.6-6.8-3.8l-13.8,8.6
					c-1.3,0.8-2.1,2.2-2.1,3.8v59.1C201.3,187.6,205.2,189.7,208.1,187.9z"></path>
</g>
<polygon class="st5" points="196.6,207.8 227.3,188.6 227.3,134.1 			"></polygon>
</g>
</g>
</g>
<g id="Layer_15">
<g>
<path class="st7" d="M127,190.3c-17.3,10.6-34.5,21.1-51.8,31.7c18.9,12.8,37.9,25.5,56.8,38.3c19-14.8,38-29.6,57-44.4
			C168.3,207.3,147.6,198.8,127,190.3z"></path>
<g>
<g>
<polygon class="st37" points="133.4,171 87,141.8 110.2,133.7 				"></polygon>
<polygon class="st36" points="133.4,245.5 87,216.4 133.4,175.9 179.8,216.4 				"></polygon>
<polygon class="st28" points="133.4,245.5 87,216.3 87,141.8 133.4,170.9 				"></polygon>
<polygon class="st22" points="133.4,245.5 179.8,216.4 179.8,141.8 133.4,171 				"></polygon>
<polygon class="st27" points="133.4,234.6 87,205.4 87,154.3 133.4,183.5 				"></polygon>
<polygon class="st1" points="133.4,234.6 179.8,205.4 179.8,154.3 133.4,183.5 				"></polygon>
<polygon class="st5" points="133.4,245.5 179.8,216.3 179.8,161.8 				"></polygon>
<polyline class="st34" points="156.6,104.6 179.8,141.8 133.4,171 110.2,133.7 				"></polyline>
<path class="st28" d="M156.6,104.6c-7.7,2.7-15.5,5.4-23.2,8.1c-7.7,4.8-15.4,9.7-23.1,14.5l0,0l0,0L87,141.8l23.2-8.1l0,0
					C125.7,124,141.1,114.3,156.6,104.6z"></path>
<g>
<ellipse transform="matrix(0.8406 -0.5416 0.5416 0.8406 -50.1922 98.7749)" class="st29" cx="142.7" cy="134.7" rx="8.5" ry="9.6"></ellipse>
<rect x="142.5" y="124.3" transform="matrix(0.8406 -0.5416 0.5416 0.8406 -49.5754 99.3108)" class="st29" width="2.9" height="19.1"></rect>
<ellipse transform="matrix(0.8406 -0.5416 0.5416 0.8406 -48.9463 99.8498)" class="st25" cx="145.2" cy="133.1" rx="8.5" ry="9.6"></ellipse>
</g>
</g>
</g>
</g>
</g>
</svg>